<?xml version="1.0" standalone="no"?>
<!DOCTYPE svg PUBLIC "-//W3C//DTD SVG 1.1//EN" "http://www.w3.org/Graphics/SVG/1.1/DTD/svg11.dtd" >
<svg xmlns="http://www.w3.org/2000/svg">
<metadata>Generated by IcoMoon</metadata>
<defs>
<font id="OpenSkyIcons" horiz-adv-x="1024">
<font-face units-per-em="1024" ascent="960" descent="-64" />
<missing-glyph horiz-adv-x="1024" />
<glyph unicode="&#x20;" horiz-adv-x="512" d="" />
<glyph unicode="&#xe900;" glyph-name="check" horiz-adv-x="1319" d="M442.562-64l-442.562 442.562 148.078 148.078 294.484-295.32 728.68 728.68 148.078-148.078-876.758-875.922z" />
<glyph unicode="&#xe901;" glyph-name="transfer" horiz-adv-x="809" d="M557.931 458.132l-47.958 47.958 203.314 203.314-203.314 202.639 47.958 47.958 250.596-250.596-250.596-251.272zM48.859 757.557l713.283 2.49 0.236-67.546-713.283-2.49-0.236 67.546zM250.596-64l-250.596 251.272 250.596 250.596 47.958-47.958-203.314-202.639 203.314-203.314-47.958-47.958zM48.648 237.454l713.283 2.49 0.236-67.546-713.283-2.49-0.236 67.546z" />
<glyph unicode="&#xe902;" glyph-name="plus" d="M0 512h1024v-128h-1024v128zM448 960h128v-1024h-128v1024z" />
<glyph unicode="&#xe903;" glyph-name="minus" horiz-adv-x="8192" d="M0 960h8192v-1024h-8192v1024z" />
<glyph unicode="&#xe904;" horiz-adv-x="1344" d="M1075.2-64h-1075.2v1024h1075.2l268.971-512-268.971-512z" />
<glyph unicode="&#xe905;" horiz-adv-x="1344" d="M559.104 622.763c0 80.307-65.101 145.408-145.408 145.408s-145.408-65.101-145.408-145.408c0-80.307 65.101-145.408 145.408-145.408 0 0 0 0 0 0 80.307 0 145.408 65.101 145.408 145.408v0zM340.651 622.763c0 40.342 32.704 73.045 73.045 73.045s73.045-32.704 73.045-73.045c0-40.342-32.704-73.045-73.045-73.045 0 0 0 0 0 0-40.342 0-73.045 32.704-73.045 73.045v0z" />
<glyph unicode="&#xe906;" horiz-adv-x="1344" d="M738.645 418.645c-80.307 0-145.408-65.101-145.408-145.408s65.101-145.408 145.408-145.408c80.307 0 145.408 65.101 145.408 145.408 0 0 0 0 0 0 0 80.307-65.101 145.408-145.408 145.408 0 0 0 0 0 0v0zM738.645 200.192c-40.342 0-73.045 32.704-73.045 73.045s32.704 73.045 73.045 73.045c40.342 0 73.045-32.704 73.045-73.045 0 0 0 0 0 0 0-40.342-32.704-73.045-73.045-73.045 0 0 0 0 0 0v0z" />
<glyph unicode="&#xe907;" horiz-adv-x="1344" d="M742.741 749.056c-5.518 3.185-12.137 5.064-19.195 5.064-14.58 0-27.287-8.019-33.952-19.887l-297.061-533.358c-3.138-5.503-4.988-12.093-4.988-19.115 0-21.606 17.515-39.121 39.121-39.121 14.584 0 27.305 7.981 34.032 19.813l297.061 533.356c3.185 5.518 5.064 12.137 5.064 19.195 0 14.58-8.019 27.287-19.887 33.952l-0.196 0.101z" />
<glyph unicode="&#xe908;" glyph-name="remove" d="M-4.177 844.956l119.88 119.88 903.898-903.898-119.88-119.88-903.898 903.898zM-0.786 55.619l903.898 903.898 119.88-119.88-903.898-903.898-119.88 119.88z" />
<glyph unicode="&#xe909;" glyph-name="user" horiz-adv-x="835" d="M655.9 721.666c0-131.628-106.706-238.334-238.334-238.334s-238.334 106.706-238.334 238.334c0 131.628 106.706 238.334 238.334 238.334s238.334-106.706 238.334-238.334zM538.981 335.578l-121.415-261.46-121.415 261.46c-172.832-53.726-296.151-212.224-296.151-399.524 0-0.019 0-0.038 0-0.057l835.132 0.003c0 0.016 0 0.035 0 0.054 0 187.301-123.319 345.798-293.192 398.73z" />
<glyph unicode="&#xe90a;" glyph-name="selectArr" horiz-adv-x="2048" d="M2048 960l-1024-1024-1024 1024z" />
<glyph unicode="&#xe90b;" glyph-name="plane" horiz-adv-x="1078" d="M1078.494 448c-1.292 44.119-36.723 79.55-80.721 80.839l-299.536 0.003-269.474 431.158h-107.789l134.737-431.158h-299.415l-80.842 107.789h-74.854l53.895-188.632-53.895-188.632h80.842l80.842 107.789h299.415l-134.737-431.158h107.789l269.474 431.158h299.415c44.119 1.292 79.55 36.723 80.839 80.721l0.003 0.121z" />
<glyph unicode="&#xe90c;" glyph-name="info" d="M512-64c-282.77 0-512 229.23-512 512s229.23 512 512 512c282.77 0 512-229.23 512-512s-229.23-512-512-512zM512 887.040c-242.475 0-439.040-196.565-439.040-439.040s196.565-439.040 439.040-439.040c242.475 0 439.040 196.565 439.040 439.040-0.364 242.329-196.711 438.676-439.005 439.040zM610.56 295.68l-6.4-24.96-44.16-16.64c-10.819-3.665-23.281-5.78-36.237-5.78-0.761 0-1.519 0.007-2.276 0.022-1.362-0.104-3.083-0.162-4.819-0.162-17.768 0-34.115 6.084-47.071 16.284-11.235 9.565-18.42 23.913-18.42 39.94 0 0.54 0.008 1.078 0.024 1.615-0.216 2.889-0.338 6.351-0.338 9.841s0.122 6.952 0.362 10.382q-0.026 9.778 4.454 22.578l23.040 81.28c0 7.68 3.84 15.36 5.12 22.4 0.3 2.879 0.472 6.219 0.472 9.6s-0.171 6.721-0.506 10.014c0.146 0.55 0.21 1.668 0.21 2.8 0 7.054-2.481 13.529-6.618 18.599-5.779 4.053-13.019 6.51-20.833 6.51-1.213 0-2.412-0.059-3.595-0.175-2.639 0.442-5.856 0.688-9.13 0.688s-6.491-0.246-9.633-0.72l-15.647-5.076 6.4 24.96 43.52 16c11.639 3.96 25.049 6.294 38.989 6.4 1.532 0.106 3.26 0.166 5.002 0.166 17.554 0 33.686-6.093 46.395-16.279 10.886-9.666 17.804-23.873 17.804-39.696 0-0.63-0.011-1.257-0.033-1.881q0.002-5.029 0.002-18.469c-0.786-8.999-2.372-17.273-4.708-25.225l-22.812-80.375c-1.75-5.799-3.527-13.346-4.915-21.028-0.454-4.247-0.595-7.593-0.595-10.972s0.142-6.725 0.419-10.032c-0.166-0.586-0.244-1.764-0.244-2.96 0-7.11 2.761-13.576 7.268-18.383 5.985-3.719 13.265-5.933 21.063-5.933 1.367 0 2.719 0.068 4.051 0.201 2.716-0.425 6.046-0.659 9.432-0.659s6.716 0.235 9.977 0.689zM616.32 636.16c0.001-0.104 0.001-0.226 0.001-0.349 0-14.106-6.167-26.772-15.952-35.448-10.236-9.319-23.839-14.999-38.769-14.999s-28.533 5.68-38.766 14.997c-9.862 8.899-16.062 21.784-16.062 36.118s6.2 27.22 16.065 36.122c10.173 9.448 23.794 15.223 38.763 15.223s28.59-5.774 38.756-15.217c9.814-8.795 15.983-21.558 15.983-35.761 0-0.466-0.007-0.931-0.020-1.395z" />
<glyph unicode="&#xe90d;" glyph-name="calendar" horiz-adv-x="1009" d="M757.747 743.591c0.187-0.002 0.409-0.003 0.631-0.003 39.027 0 70.664 31.637 70.664 70.664 0 0.001 0 0.002 0 0.003v75.081c-3.536 36.386-33.963 64.596-70.98 64.596s-67.444-28.21-70.957-64.304l-0.023-74.742c0-0.001 0-0.002 0-0.003 0-39.027 31.637-70.664 70.664-70.664 0.222 0 0.443 0.001 0.665 0.003h-0.034zM1010.12 836.969h-142.59v-35.963c0-59.76-48.445-108.205-108.205-108.205s-108.205 48.445-108.205 108.205v35.963h-288.966v-35.963c0-59.76-48.445-108.205-108.205-108.205s-108.205 48.445-108.205 108.205v35.963h-144.483v-902.861h1009.489zM937.563 6.033h-865.006v577.301h865.006v-577.301zM253.003 743.591c0.187-0.002 0.409-0.003 0.631-0.003 39.027 0 70.664 31.637 70.664 70.664 0 0.001 0 0.002 0 0.003v75.081c-3.536 36.386-33.963 64.596-70.98 64.596s-67.444-28.21-70.957-64.304l-0.023-74.742c0-39.027 31.637-70.664 70.664-70.664v0zM360.892 506.992h113.567v-100.318h-113.567v100.318zM544.493 506.992h113.567v-100.318h-113.567v100.318zM714.844 506.992h113.567v-100.318h-113.567v100.318zM360.892 340.426h113.567v-100.318h-113.567v100.318zM544.493 340.426h113.567v-100.318h-113.567v100.318zM714.844 340.426h113.567v-100.318h-113.567v100.318zM360.892 170.706h113.567v-100.318h-113.567v100.318zM180.446 340.426h113.567v-100.318h-113.567v100.318zM180.446 170.706h113.567v-100.318h-113.567v100.318zM544.493 170.706h113.567v-100.318h-113.567v100.318zM714.844 170.706h113.567v-100.318h-113.567v100.318z" />
<glyph unicode="&#xe90e;" glyph-name="rightArr" horiz-adv-x="595" d="M83.472-64l-83.472 83.472 429.116 429.116-429.116 427.94 83.472 83.472 511.412-511.412-511.412-512.588z" />
<glyph unicode="&#xe90f;" glyph-name="web" horiz-adv-x="1040" d="M527.943 960h-15.681c-282.77 0-512-229.23-512-512s229.23-512 512-512h15.681c282.77 0 512 229.23 512 512s-229.23 512-512 512v0zM413.468 907.728c-55.082-59.661-101.194-128.7-135.503-204.238-44.924 15.097-81.617 36.536-116.058 60.943 66.564 69.984 151.867 121.447 248.417 143.221l3.145 0.596zM136.429 728.437c35.585-25.548 76.061-49.261 118.687-69.133-17.433-60.859-30.909-128.917-32.428-199.919l-178.257-0.669c1.829 101.825 36.094 195.303 92.861 270.922l-0.863-1.201zM148.974 153.45c-58.747 71.123-96.956 161.163-104.447 259.788l177.628 1.57c4.021-70.963 19.398-137.231 44.349-198.585-46.505-15.825-84.948-37.481-121.054-62.292l2.479 1.61zM178.769 120.519c29.975 20.585 64.288 39.96 100.276 56.289 38.872-69.772 81.132-131.247 131.22-185.375-91.822 21.536-170.517 66.757-231.968 129.034l-0.051 0.052zM497.103-19.046h-14.113c-63.614 59.584-116.183 130.025-154.926 208.512 48.849 23.039 107.471 34.922 168.559 37.135l1.002-246.693zM497.103 271.061c-68.503-2.292-133.221-15.513-193.442-37.968-17.458 53.606-31.862 114.109-35.944 177.422l229.385 1.68v-141.656zM497.103 456.102h-230.518c1.66 65.713 14.168 128.003 35.791 185.846 56.578-26.721 123.531-41.23 193.48-44.149l1.247-141.175zM497.103 641.143c-65.354 2.903-126.748 16.267-183.731 38.455 45.665 90.828 102.004 169.254 170.861 234.619l12.87 0.306v-273.903zM903.775 725.823c55.904-74.418 90.169-167.896 91.992-269.295l-178.24-0.426c-1.53 71.671-15.007 139.729-38.507 202.911 48.697 17.557 89.172 41.27 127.055 68.374l-2.3-1.564zM876.071 759.8c-32.218-22.922-68.911-44.361-107.488-62.451-40.643 78.546-86.757 147.587-142.325 207.768 100.173-22.895 185.476-74.358 249.436-145.413l0.377-0.426zM543.624 916.615h12.545c69.193-65.664 125.534-144.092 165.374-231.617-51.171-25.496-112.565-38.86-176.691-41.72l-1.228 273.859zM543.624 598.803c71.196 2.96 138.149 17.47 200.238 41.699 16.111-55.351 28.619-117.641 30.265-182.631l-230.503-0.724v141.133zM543.624 413.762h229.472c-4.178-64.995-18.581-125.496-41.634-181.526-54.617 24.888-119.337 38.11-186.836 40.366l-1.002 141.683zM557.738-17.478h-14.113v246.722c62.091-2.242 120.712-14.125 175.383-34.194-44.563-81.458-97.132-151.898-160.347-211.112l-0.4-0.371zM629.872-7.547c49.632 53.629 91.893 115.105 124.529 182.13 42.224-13.583 76.536-32.957 108.844-55.048-63.834-60.823-142.529-106.044-230.724-126.464l-3.172-0.618zM891.23 153.972c-33.627 23.202-72.070 44.858-112.454 62.96 18.831 59.076 34.207 125.344 38.154 194.672l177.798 1.635c-7.588-100.194-45.796-190.235-105.176-262.147l0.633 0.789z" />
<glyph unicode="&#xe910;" glyph-name="users" horiz-adv-x="1366" d="M683.154 447.269c119.954 0 212.846 124.343 212.846 252.343v40.229c0 117.551-95.294 212.846-212.846 212.846s-212.846-95.294-212.846-212.846c0 0 0 0 0 0v-40.229c0-128.731 92.891-252.343 212.846-252.343v0zM256.731 405.577c69.801 8.925 123.806 65.946 127.981 136.376l0.019 68.424c0 70.692-57.308 128-128 128s-128-57.308-128-128v-68.023c4.194-70.831 58.199-127.852 127.272-136.701l0.728-0.076zM1022.537 235.154v0c-1.026 8.899-2.568 16.843-4.655 24.563l0.266-1.157c-5.223 18.167-13.239 34.005-23.678 47.922l0.272-0.379c-24.447 31.764-54.951 57.594-89.935 76.080-15.121 11.122-31.818 18.191-50.012 20.42-32.782-7.124-60.098-24.91-79.256-49.388l-0.226-0.3-31.451-29.257c-5.625-28.603-30.499-49.881-60.343-49.881s-54.718 21.278-60.279 49.491l-31.515 29.647c-19.384 24.778-46.7 42.564-78.083 49.566-19.657-1.658-36.453-8.805-50.102-19.721-35.64-20.188-65.939-45.824-90.798-76.098l-0.446-0.559c-10.167-13.538-18.182-29.376-23.149-46.51l-0.257-1.033c-1.811-6.551-3.352-14.494-4.313-22.616l-0.076-0.79c-0.232-3.934-0.365-8.534-0.365-13.166s0.132-9.232 0.394-13.798-0.029-185.882-0.029-187.345c-0.828-4.13-1.301-8.877-1.301-13.736 0-40.396 32.747-73.143 73.143-73.143 4.858 0 9.606 0.474 14.199 1.377l511.536-0.076c4.13-0.828 8.877-1.301 13.736-1.301 40.396 0 73.143 32.747 73.143 73.143 0 4.858-0.474 9.606-1.377 14.199l0.076 187.514c0.232 3.934 0.364 8.534 0.364 13.166s-0.132 9.232-0.393 13.798l0.029-0.632zM1109.577 405.577c69.801 8.925 123.806 65.946 127.981 136.376l0.019 68.424c0 70.692-57.308 128-128 128s-128-57.308-128-128v-68.023c4.194-70.831 58.199-127.852 127.272-136.701l0.728-0.076zM97.28 313.417c-58.345-31.718-97.285-92.55-97.285-162.477 0-0.479 0.002-0.958 0.005-1.436s0-84.772 0-85.504c-0.828-4.13-1.301-8.877-1.301-13.736 0-40.396 32.747-73.143 73.143-73.143 4.858 0 9.606 0.474 14.199 1.377l173.616-0.076v256l-42.423 42.423c-18.706 25.431-48.515 41.751-82.136 41.751-12.249 0-23.992-2.166-34.867-6.136l0.706 0.226zM256 234.423s0 20.48 0 0v0zM1365.577 148.846c0.003 0.405 0.005 0.884 0.005 1.363 0 69.927-38.94 130.759-96.318 161.995-11.136 4.227-22.879 6.393-35.128 6.393-33.621 0-63.431-16.32-81.939-41.47l-42.62-42.704v-256h174.080c4.13-0.828 8.877-1.301 13.736-1.301 40.396 0 73.143 32.747 73.143 73.143 0 4.858-0.474 9.606-1.377 14.199s0.076 84.382 0.076 85.114v0zM1109.577 234.423c0 20.48 0 0 0 0v0z" />
<glyph unicode="&#xe911;" glyph-name="fb" d="M376.832 761.344v-141.312h-103.083v-172.715h103.083v-512.683h210.944v512.683h142.677s13.653 82.603 19.797 173.397h-162.475v118.101c4.107 22.389 22.726 39.377 45.584 40.951l115.526 0.009v179.541h-157.013c-222.549 0-217.771-172.715-217.771-198.656v0z" />
<glyph unicode="&#xe912;" glyph-name="queen" horiz-adv-x="1177" d="M965.842 67.548h-755.364c-27.886-9.368-47.617-35.267-47.617-65.774s19.731-56.407 47.129-65.632l755.853-0.143c27.886 9.368 47.617 35.267 47.617 65.774s-19.731 56.407-47.129 65.632zM1098.082 692.057c0 0 0 0 0 0-43.209 0-78.237-35.028-78.237-78.237 0 0 0 0 0 0 0.069-8.698 1.585-17.019 4.318-24.766l-189.178-110.244-202.861 336.487c21.199 14.221 34.964 38.093 34.964 65.18 0 43.209-35.028 78.237-78.237 78.237s-78.237-35.028-78.237-78.237c0-27.087 13.766-50.959 34.683-65.002l-202.58-336.665-189.014 110.778c2.511 7.209 4.022 15.523 4.153 24.17 0.001 43.271-35.027 78.299-78.236 78.299s-78.237-35.028-78.237-78.237c0-43.209 35.028-78.237 78.237-78.237v0l104.546-378.028h805.214l104.546 378.028c0.619-0.018 1.347-0.028 2.077-0.028 43.224 0 78.264 35.040 78.264 78.264 0 42.494-33.866 77.078-76.080 78.234z" />
<glyph unicode="&#xe913;" glyph-name="plane2" horiz-adv-x="1078" d="M1077.895 448c-1.292 44.119-36.723 79.55-80.721 80.839l-299.536 0.003-269.474 431.158h-107.789l134.737-431.158h-299.415l-80.842 107.789h-80.842l53.895-188.632-53.895-188.632h80.842l80.842 107.789h299.415l-134.737-431.158h107.789l269.474 431.158h299.415c44.119 1.292 79.55 36.723 80.839 80.721l0.003 0.121z" />
<glyph unicode="&#xe914;" glyph-name="time" d="M512 960c-282.77 0-512-229.23-512-512s229.23-512 512-512c282.77 0 512 229.23 512 512-0.497 282.57-229.43 511.503-511.952 512h-0.048zM512 73.409c374.591 374.591 374.591 374.591 374.591 374.591 0-206.881-167.71-374.591-374.591-374.591v0zM759.685 465.504h-213.552v257.313c-2.949 19.088-19.262 33.53-38.947 33.53s-35.998-14.442-38.919-33.309l-0.028-296.043c0-21.752 17.633-39.385 39.385-39.385h252.937c1.76-0.279 3.789-0.438 5.855-0.438 21.752 0 39.385 17.633 39.385 39.385s-17.633 39.385-39.385 39.385c-2.066 0-4.095-0.159-6.075-0.466l0.221 0.028z" />
<glyph unicode="&#xe915;" glyph-name="tw" d="M991.817 755.2c-34.075-15.565-73.603-26.895-115.061-31.986 39.982 25.389 71.516 64.51 86.853 110.996-36.858-20.958-80.252-37.976-126.474-47.133-39.778 39.262-92.529 63.988-151.056 63.988-112.3 0-203.337-91.037-203.337-203.337 0-0.017 0-0.034 0-0.051 0.013-16.337 1.878-32.235 5.396-47.5-169.981 10.118-319.26 90.774-419.295 213.232-18.148-28.261-28.386-63.529-28.386-101.189 0-70.229 35.604-132.143 89.746-168.675-33.289 0.592-64.898 9.957-92.424 25.659l0.986-0.518c0.117-98.107 69.446-179.987 161.778-199.445-14.327-4.418-32.303-6.821-50.841-6.821-0.43 0-0.86 0.001-1.289 0.004-5.744-0.584-12.492-0.916-19.317-0.916s-13.572 0.333-20.227 0.983c27.779-81.446 102.394-139.452 190.807-141.229-68.536-54.268-156.432-87.044-251.983-87.044-0.31 0-0.621 0-0.931 0.001-7.164-0.423-15.598-0.664-24.089-0.664s-16.925 0.241-25.297 0.717c89.463-57.458 197.485-91.593 313.48-91.593 319.53 0 578.56 259.030 578.56 578.56 0 0.039 0 0.079 0 0.118v26.325c40.092 29.053 73.839 63.963 100.743 103.869l0.926 1.457z" />
<glyph unicode="&#xe916;" glyph-name="vk" d="M1035.605 219.307l-3.413 6.827c-29.488 45.771-63.818 85.094-103.058 118.871l-0.708 0.595q-34.816 32.768-43.691 44.373c-6.61 7.341-10.653 17.107-10.653 27.817 0 5.726 1.156 11.182 3.247 16.148 14.659 25.576 30.698 47.923 48.759 68.447l35.107 45.284q93.525 124.928 81.237 159.061v5.461c-4.484 4.531-10.333 7.703-16.879 8.847-5.421 1.178-11.432 1.837-17.596 1.837s-12.175-0.659-17.965-1.91l-155.773 0.101c-1.637 0.471-3.518 0.742-5.461 0.742s-3.824-0.271-5.606-0.777l-6.682 0.035-6.144-5.461c-2.177-2.748-4.016-5.903-5.372-9.304-18.597-48.058-38.095-88.292-60.392-126.699q-17.521-29.202-34.587-53.778c-8.901-13.569-18.112-25.383-28.184-36.397-6.101-6.308-12.785-12.342-19.863-17.897-4.035-4.107-9.121-6.463-14.758-6.463 0 0 0 0 0 0h-9.557c-5.144 3.246-9.299 7.619-12.196 12.791-3.294 6.325-5.48 13.501-6.217 21.102q-0.019 13.21-0.019 22.085c0 6.144 0 15.019 0 25.941s0 19.115 0 22.528 0 28.672 0 44.373 0 28.672 0 38.229 0 19.115 0 30.037c0.386 3.685 0.606 7.961 0.606 12.288s-0.22 8.603-0.649 12.817c-1.303 5.954-3.187 11.661-5.63 17.061-2.15 4.867-5.904 9.279-10.601 12.378-5.412 3.357-11.566 5.945-18.12 7.494-21.511 4.433-45.748 6.922-70.566 6.922-1.020 0-2.039-0.004-3.057-0.013-8.849 0.812-19.324 1.274-29.906 1.274-35.51 0-69.804-5.204-102.162-14.891-5.466-3.689-12.245-9.162-17.887-15.649q-9.632-11.693-0.075-13.059c18.335-1.597 34.393-10.222 45.67-23.13l0.069-6.907c3.288-7.093 5.897-15.341 7.42-23.964 2.56-12.206 4.272-25.808 4.852-39.703 0.906-10.727 1.413-22.623 1.413-34.638s-0.507-23.911-1.501-35.668q0.105-26.455-5.357-42.156c-1.343-9.416-3.974-17.925-7.738-25.789l-6.598-11.075c-2.155-0.409-4.634-0.643-7.168-0.643s-5.013 0.234-7.417 0.681c-6.818 0.624-13.145 3.349-18.244 7.519-8.408 6.23-15.8 13.189-22.306 20.918-9.517 11.086-18.301 23.129-26.092 35.845q-15.029 25.109-30.73 57.877l-8.875 15.701q-8.192 15.019-22.528 44.373t-24.576 55.979c-2.604 7.023-7.097 12.836-12.864 16.993l-0.107 0.073-8.875 4.779-26.624 0.683h-148.139c-1.395 0.184-3.009 0.289-4.647 0.289-10.133 0-19.329-4.014-26.083-10.539l0.011 0.010c-0.358-1.332-0.564-2.86-0.564-4.437s0.206-3.106 0.592-4.561c-0.411-2.031-0.629-4.512-0.629-7.044s0.219-5.013 0.639-7.425q32.731-76.202 68.23-147.199t68.267-114.005q27.989-43.691 57.344-81.92t38.912-49.152l15.019-16.384 13.653-12.971c11.527-11.090 24.006-21.402 37.227-30.732 16.652-11.927 34.931-23.667 53.803-34.49 22.777-13.134 45.434-22.905 69.303-29.82 22.101-6.37 45.030-9.728 68.744-9.728 4.427 0 8.827 0.117 13.196 0.348l61.512-0.026c11.117 0.192 21.175 4.573 28.695 11.627l-0.023-0.022c1.785 2.948 3.196 6.366 4.048 10 0.374 2.496 0.56 5.101 0.56 7.75s-0.186 5.253-0.546 7.802c-0.049 1.744-0.096 4.136-0.096 6.539 0 12.562 1.29 24.823 3.745 36.657 1.908 9.385 5.214 18.751 9.644 27.449 2.974 5.381 6.832 10.546 11.323 15.084l9.552 8.186h4.096c2.277 0.541 4.891 0.852 7.577 0.852 8.942 0 17.080-3.438 23.166-9.064 12.341-9.223 23.104-19.553 32.486-31.054q15.961-18.76 37.124-42.654c11.507-12.771 24.018-24.199 37.555-34.333l19.107-1.166c8.020-4.573 17.306-8.525 27.063-11.374 5.433-1.443 10.608-2.139 15.945-2.139s10.512 0.696 15.438 2.002l136.114-0.095c1.024-0.060 2.221-0.094 3.426-0.094 10.464 0 20.33 2.559 29.007 7.085 5.994 2.884 10.848 8.182 13.246 14.669 0.705 2.954 1.075 6.134 1.075 9.4s-0.37 6.447-1.070 9.501c-0.883 5.126-2.305 9.94-4.208 14.503l0.167-0.451z" />
<glyph unicode="&#xe917;" glyph-name="milesPay" horiz-adv-x="1325" d="M813.176 960c-3.875 0.157-8.423 0.246-12.993 0.246-23.105 0-45.676-2.282-67.502-6.633-16.859 4.418-38.744 6.739-61.171 6.739-5.257 0-10.485-0.128-15.679-0.38-2.838 0.184-7.026 0.273-11.235 0.273-21.359 0-42.185-2.283-62.247-6.618-16.199 4.335-37.025 6.618-58.384 6.618-4.209 0-8.397-0.089-12.562-0.264-282.175 0.020-511.405-229.21-511.405-511.98s229.23-512 512-512c3.57-0.156 7.758-0.244 11.967-0.244 21.359 0 42.185 2.283 62.247 6.618 16.199-4.335 37.025-6.618 58.384-6.618 4.209 0 8.397 0.089 12.562 0.264 3.28-0.177 7.828-0.266 12.397-0.266 23.105 0 45.676 2.282 67.502 6.633 17.449-4.351 40.020-6.633 63.125-6.633 4.569 0 9.118 0.089 13.644 0.266 282.119-0.020 511.349 229.21 511.349 511.98s-229.23 512-512 512zM54.212 448c0.806 205.93 139.27 379.301 328.109 432.921-142.421-90.902-237.757-250.778-237.757-432.921s95.335-342.019 238.829-432.451c-188.553 55.246-325.865 227.373-329.177 432.071zM554.165 8.282c-202.077 47.582-350.188 226.353-350.188 439.718s148.111 392.136 347.128 439.109c-149.431-89.055-250.17-252.317-250.17-439.109s100.738-350.054 250.85-438.422zM1102.306 411.859l-162.635-12.047-138.541-252.988h-66.259l84.329 252.988-144.565 6.024-36.141-48.188h-54.212l36.141 90.353-30.118 96.376 54.212-6.024 36.141-54.212 138.541 12.047-84.329 252.988h72.282l138.541-252.988 162.635-6.024c20.353-6.001 37.103-18.84 47.985-35.803-11.099-21.207-30.37-36.541-53.426-42.378z" />
<glyph unicode="&#xe918;" glyph-name="yt" d="M990.72 686.72c-11.954 52.441-54.903 92.151-108.153 99.131-113.665 8.969-245.363 14.042-378.247 14.042s-264.582-5.073-394.913-15.036c-36.584-5.985-79.533-45.696-91.322-97.277-11.427-72.506-17.861-155.132-17.861-239.259s6.434-166.753 18.836-247.411c10.814-43.43 53.763-83.141 107.013-90.12 113.663-8.95 245.364-14.012 378.247-14.012s264.584 5.062 394.92 15.004c36.577 5.987 79.526 45.698 91.315 97.279 11.329 72.504 17.706 155.137 17.706 239.259s-6.377 166.756-18.675 247.442l1.133-9.042zM373.12 291.84v333.44l320-167.040-320-166.4z" />
<glyph unicode="&#xe919;" glyph-name="inst" d="M824.488 960h-628.182c0 0 0 0 0 0-109.302 0-197.909-88.607-197.909-197.909 0 0 0 0 0 0v-628.182c0-109.302 88.607-197.909 197.909-197.909 0 0 0 0 0 0h628.182c0 0 0 0 0 0 109.302 0 197.909 88.607 197.909 197.909 0 0 0 0 0 0v628.983c-0.455 108.957-88.887 197.108-197.908 197.108-0.001 0-0.001 0-0.002 0zM881.377 842.216h23.236v-173.070h-173.070v173.872h150.635zM364.57 552.964c-21.379-29.043-34.278-65.48-34.454-104.922 0.677 39.625 14.119 76.025 36.38 105.368zM925.446 133.909c0-53.987-43.765-97.753-97.753-97.753 0 0 0 0 0 0h-628.182c0 0 0 0 0 0-53.987 0-97.753 43.765-97.753 97.753 0 0 0 0 0 0v419.055h153.039c-12.925-31.045-20.432-67.109-20.432-104.927 0-154.439 125.198-279.637 279.637-279.637s279.637 125.198 279.637 279.637c0 37.817-7.507 73.881-21.112 106.783l153.719-1.856v-419.055z" />
<glyph unicode="&#xe91a;" glyph-name="car" horiz-adv-x="1447" d="M1438.543 643.195c-6.85 8.26-17.114 13.481-28.598 13.481-0.017 0-0.035 0-0.052 0h-140.987c-34.826 91.559-79.763 181.433-131.44 215.135-178.063 117.398-650.462 117.398-828.524 0-51.677-33.703-96.614-123.577-131.44-215.135h-140.99c-0.084 0.001-0.183 0.001-0.282 0.001-20.475 0-37.073-16.598-37.073-37.073 0-2.786 0.307-5.501 0.89-8.112l20.737-100.861c3.497-16.968 18.223-29.575 35.928-29.771h41.026c-37.357-43.424-60.105-100.35-60.105-162.589 0-0.306 0.001-0.611 0.002-0.916-0.042-1.635-0.065-3.617-0.065-5.604 0-70.415 29.785-133.873 77.444-178.462l0.138-0.127v-141.551c0-31.022 25.149-56.171 56.171-56.171h129.755c31.022 0 56.171 25.149 56.171 56.171v56.171h730.225v-56.171c0-31.022 25.149-56.171 56.171-56.171h129.755c31.022 0 56.171 25.149 56.171 56.171v138.743c48.853 46.369 79.247 111.777 79.247 184.284 0 64.242-23.86 122.911-63.201 167.63l44.057-0.282c0.049 0 0.107 0 0.164 0 17.891 0 32.821 12.673 36.305 29.531l20.825 101.348c0.493 2.284 0.775 4.908 0.775 7.598 0 8.832-3.043 16.954-8.137 23.374l0.060-0.078zM371.291 779.691c141.551 93.244 561.711 93.244 706.071 0 43.571-50.247 76.563-110.91 94.75-177.678l-897.997-3.193c18.908 69.965 51.903 130.632 95.97 181.435l-0.479-0.564zM202.778 304.483c0 60.494 49.040 109.534 109.534 109.534s109.534-49.040 109.534-109.534c0-60.494-49.040-109.534-109.534-109.534 0 0 0 0 0 0s0 0 0 0c-60.494 0-109.534 49.040-109.534 109.534v0zM1133.534 194.949c-60.494 0-109.534 49.040-109.534 109.534s49.040 109.534 109.534 109.534c60.494 0 109.534-49.040 109.534-109.534 0 0 0 0 0 0 0-60.494-49.040-109.534-109.534-109.534v0z" />
<glyph unicode="&#xe91b;" glyph-name="fork" horiz-adv-x="573" d="M507.327 960c-62.096-0.077-112.944-48.134-117.463-109.086l-31.62-440.518c-0.11-1.465-0.173-3.173-0.173-4.896 0-38.246 30.927-69.269 69.137-69.423h0.015l-10.681-344.449c-0.025-0.614-0.040-1.335-0.040-2.059 0-14.454 5.791-27.556 15.178-37.111 9.762-9.889 23.326-16.020 38.323-16.020 0.293 0 0.585 0.002 0.876 0.007l44.458-0.001c0.265-0.005 0.578-0.007 0.892-0.007 29.831 0 54.043 24.059 54.291 53.832v904.312c0 0 0 0.001 0 0.002 0 36.13-29.289 65.419-65.419 65.419-0.156 0-0.313-0.001-0.469-0.002h0.024zM247.433 959.11h-4.45c-0.267 0.014-0.581 0.021-0.896 0.021-10.323 0-18.691-8.368-18.691-18.691 0-0.164 0.002-0.328 0.006-0.491v-194.006c-0.251-17.258-14.3-31.152-31.594-31.152-0.001 0-0.002 0-0.003 0h-4.45c-0.001 0-0.002 0-0.003 0-17.294 0-31.343 13.894-31.593 31.128v194.054c0.003 0.134 0.005 0.292 0.005 0.45 0 10.323-8.368 18.691-18.691 18.691-0.158 0-0.316-0.002-0.474-0.006h-4.427c-0.132 0.003-0.289 0.005-0.445 0.005-10.569 0-19.136-8.567-19.136-19.136 0-0.002 0-0.004 0-0.005v-194.030c0-17.205-13.947-31.152-31.152-31.152h-7.12c-0.001 0-0.002 0-0.003 0-16.959 0-30.707 13.748-30.707 30.707 0 0.156 0.001 0.313 0.004 0.469v194.007c-0.487 10.673-9.258 19.141-20.007 19.141-0.163 0-0.326-0.002-0.489-0.006h-4.426c-0.134 0.003-0.292 0.005-0.45 0.005-10.66 0-19.33-8.518-19.576-19.118v-293.294c0.251-35.693 29.244-64.53 64.972-64.53 0.157 0 0.314 0.001 0.471 0.002h10.211l-18.246-590.547c-0.019-0.531-0.030-1.155-0.030-1.782 0-29.739 24.109-53.848 53.848-53.848 0.167 0 0.334 0.001 0.5 0.002h44.477c29.374 0.475 53.004 24.399 53.004 53.841 0 0.785-0.017 1.566-0.050 2.343l-18.242 589.991h12.461c0.132-0.001 0.289-0.002 0.445-0.002 35.638 0 64.528 28.89 64.528 64.528 0 0.001 0 0.001 0 0.002v293.271c0 0.002 0 0.003 0 0.005 0 10.569-8.567 19.136-19.136 19.136-0.156 0-0.313-0.002-0.468-0.006h0.023z" />
<glyph unicode="&#xe91c;" glyph-name="gift" horiz-adv-x="949" d="M0 484.969h430.465v127.62h87.106v-127.62h430.465v256.76h-167.628c13.503 22.25 21.494 49.145 21.494 77.905 0 39.26-14.891 75.042-39.334 102.005-24.391 23.698-57.885 38.39-94.811 38.39-0.99 0-1.977-0.011-2.962-0.032-53.481-1.531-101.504-24.322-136.022-60.199-32.119-38.744-52.375-88.237-54.737-142.373-2.358 54.142-22.621 103.644-55.031 142.705-34.259 35.545-82.282 58.336-135.631 59.863-1.117 0.025-2.105 0.035-3.095 0.035-36.926 0-70.421-14.692-94.957-38.548-24.17-25.138-39.075-59.399-39.075-97.142 0-7.529 0.593-14.92 1.735-22.128 2.999-22.050 9.767-42.72 19.632-61.51l-167.613 1.028v-256.76zM594.042 834.912c18.074 19.24 43.136 31.733 71.112 33.41 1.016 0.055 1.86 0.078 2.709 0.078 11.75 0 22.461-4.446 30.543-11.747 6.588-11.453 10.498-25.231 10.498-39.923 0-26.152-12.389-49.41-31.618-64.225-29.585-19.019-65.465-30.236-103.964-30.236-3.222 0-6.425 0.079-9.608 0.234 0.391 1.793 0.357 3.922 0.357 6.058 0 39.576 11.349 76.502 30.971 107.699l-0.494-0.841zM250.176 856.182c8.043 7.266 18.754 11.712 30.503 11.712 0.849 0 1.693-0.023 2.531-0.069 28.154-1.687 53.216-14.18 71.238-33.363 19.198-30.040 30.568-66.599 30.568-105.814 0-2.524-0.047-5.036-0.14-7.537-2.724 0.223-5.927 0.145-9.149 0.145-38.499 0-74.379 11.217-104.549 30.56-16.14 15.727-27.944 37.134-32.050 61.167-0.641 3.455-0.954 6.67-0.954 9.957 0 12.515 4.54 23.97 12.062 32.807l-0.059-0.072zM430.465 403.434v-467.434h-365.642v467.434h365.642zM517.571-64v467.434h365.642v-467.434h-365.642z" />
<glyph unicode="&#xe91d;" glyph-name="seat" horiz-adv-x="860" d="M134.31 705.737c41.379-5.787 74.556-35.39 85.506-74.301l145.137-429.131 428.403 30.567c2.309 0.311 4.979 0.489 7.689 0.489 18.882 0 35.75-8.626 46.877-22.152 7.547-10.226 12.028-22.944 12.028-36.709 0-6.438-0.98-12.647-2.8-18.486l-49.901-141.744c-13.328-43.524-52.304-74.971-98.899-76.874l-493.456-0.007c-45.55 1.453-82.704 35.577-88.867 79.635l-124.64 609.053c-0.126 1.663-0.198 3.602-0.198 5.558s0.072 3.895 0.213 5.814l67.14 78.014zM0 623.761l216.286 12.968v251.484c0 39.902-32.347 72.25-72.25 72.25 0 0 0 0 0 0h-46.314c-0.025 0-0.055 0-0.084 0-35.649 0-65.267-25.818-71.177-59.776zM663.686 332.132l-445.433-36.543c-19.12-1.569-35.891 12.659-37.459 31.779l-4.317 52.621c-1.569 19.12 12.659 35.891 31.779 37.459l445.433 36.543c19.12 1.569 35.891-12.659 37.459-31.779l4.317-52.621c1.569-19.12-12.659-35.891-31.779-37.459z" />
<glyph unicode="&#xe91e;" glyph-name="seat2" horiz-adv-x="693" d="M490.981 456.623c-11.158 0.010-21.256 4.54-28.564 11.856l-92.16 92.16c-7.925 7.399-12.865 17.909-12.865 29.572 0 22.324 18.097 40.421 40.421 40.421 11.663 0 22.173-4.94 29.551-12.842l63.617-63.619 133.12 133.12c7.199 6.722 16.895 10.849 27.556 10.849 22.324 0 40.421-18.097 40.421-40.421 0-10.661-4.127-20.357-10.87-27.579l-161.663-161.661c-7.308-7.317-17.406-11.847-28.562-11.857zM668.295 144.034l14.013 81.92c0.616 4.049 0.968 8.722 0.968 13.476 0 51.861-41.857 93.946-93.632 94.313h-342.806l-116.952 363.251v193.482c0 35.718-28.955 64.674-64.674 64.674 0 0 0 0 0 0v0c0 0 0 0 0 0-35.718 0-64.674-28.955-64.674-64.674v-196.716l143.899-549.726h211.806l-53.895-132.042h-226.897v-78.147h505.533v78.147h-202.644l53.895 132.042h233.903z" />
<glyph unicode="&#xe91f;" glyph-name="seat3" horiz-adv-x="1145" d="M760.832 352.768l-358.4-90.624-287.232 532.992c-10.706 19.449-31.067 32.409-54.454 32.409-34.215 0-61.952-27.737-61.952-61.952 0-5.142 0.626-10.137 1.807-14.914l200.615-815.19h546.304l115.712 324.096c1.984 5.802 3.129 12.487 3.129 19.439 0 11.725-3.257 22.689-8.916 32.037-15.84 26.297-44.531 43.799-77.31 43.799-6.84 0-13.502-0.762-19.905-2.206zM331.776 592.896l102.4-210.944 384 84.48-23.552 30.72c-15.409 19.85-39.275 32.501-66.095 32.501-3.956 0-7.848-0.275-11.657-0.808l-127.56-17.87-102.4 165.376c-16.427 21.708-42.21 35.589-71.236 35.589-49.202 0-89.088-39.886-89.088-89.088 0-10.742 1.901-21.040 5.386-30.576zM941.056 210.432l-34.304-132.096 120.32-98.816c18.115-14.9 41.544-23.933 67.084-23.933 18.783 0 36.424 4.886 51.723 13.456zM400.896 867.328c0-51.181-41.491-92.672-92.672-92.672s-92.672 41.491-92.672 92.672c0 51.181 41.491 92.672 92.672 92.672s92.672-41.491 92.672-92.672z" />
<glyph unicode="&#xe920;" glyph-name="smallbag" horiz-adv-x="1251" d="M1232.213 325.12l-105.813 283.989h-181.589v40.96c0.869 8.692 1.365 18.786 1.365 28.995 0 170.416-138.149 308.565-308.565 308.565s-308.565-138.149-308.565-308.565c0-10.21 0.496-20.304 1.465-30.259l-0.099-39.696h-204.8l-105.813-285.355c-11.56-30.019-18.256-64.751-18.256-101.046 0-159.482 129.286-288.768 288.768-288.768 0.898 0 1.796 0.004 2.692 0.012l672.972-0.001c157.86 2.117 285.015 130.581 285.015 288.744 0 36.813-6.889 72.018-19.447 104.394zM366.592 461.653c-21.113 0-38.229 17.116-38.229 38.229s17.116 38.229 38.229 38.229c21.113 0 38.229-17.116 38.229-38.229 0.016-0.407 0.024-0.885 0.024-1.365 0-21.113-17.116-38.229-38.229-38.229-0.009 0-0.017 0-0.026 0zM405.504 652.8c0 127.812 103.612 231.424 231.424 231.424s231.424-103.612 231.424-231.424v-43.691h-462.848v40.96zM906.581 461.653c0 0 0 0 0 0-21.113 0-38.229 17.116-38.229 38.229s17.116 38.229 38.229 38.229c21.113 0 38.229-17.116 38.229-38.229 0.016-0.407 0.024-0.885 0.024-1.365 0-21.113-17.116-38.229-38.229-38.229-0.009 0-0.017 0-0.026 0z" />
<glyph unicode="&#xe921;" glyph-name="smallplus" d="M435.2 960h153.6v-1024h-153.6v1024zM0 524.8h1024v-153.6h-1024v153.6z" />
<glyph unicode="&#xe922;" glyph-name="triangle" horiz-adv-x="2048" d="M2048-64l-1024 1024-1024-1024z" />
<glyph unicode="&#xe923;" glyph-name="wayArrow" horiz-adv-x="1645" d="M0 532.768h1524.698v-169.536h-1524.698v169.536zM1132.503-64l-119.806 119.806 392.194 392.194-392.194 392.194 119.806 119.806 512-512-512-512z" />
<glyph unicode="&#xe924;" glyph-name="wifi" horiz-adv-x="1326" d="M824.985 99.146c0-90.103-73.043-163.146-163.146-163.146s-163.146 73.043-163.146 163.146c0 90.103 73.043 163.146 163.146 163.146 0 0 0 0 0 0s0 0 0 0c90.103 0 163.146-73.043 163.146-163.146v0zM662.997 629.080c-1.123 0.009-2.45 0.013-3.779 0.013-174.882 0-330.022-84.527-426.792-214.955-11.369-15.713-17.578-33.59-17.578-52.918 0-48.769 39.535-88.303 88.303-88.303 29.441 0 55.516 14.408 71.561 36.557 64.81 91.888 170.223 151.006 289.443 151.006s224.633-59.118 288.522-149.638c17.11-24.073 43.646-38.867 73.639-38.867 49.289 0 89.246 39.957 89.246 89.246 0 19.297-6.124 37.163-16.536 51.762-97.264 134.807-254.164 221.743-431.377 221.883h-0.022zM1302.852 674.206c-158.25 175.657-386.502 285.603-640.434 285.603s-482.184-109.946-639.75-284.831c-18.867-16.956-30.264-40.424-30.264-66.555 0-48.566 39.371-87.937 87.937-87.937 29.9 0 56.314 14.923 72.202 37.726 125.916 140.068 307.387 227.575 509.297 227.575s383.38-87.507 508.556-226.665c16.628-23.714 43.043-38.636 72.943-38.636 48.566 0 87.937 39.371 87.937 87.937 0 26.13-11.397 49.599-29.492 65.705l-0.088 0.077z" />
<glyph unicode="&#xe925;" glyph-name="media" horiz-adv-x="1278" d="M942.304 960h-606.566c-185.423 0-335.738-150.315-335.738-335.738v-352.525c0-185.423 150.315-335.738 335.738-335.738h606.566c185.423 0 335.738 150.315 335.738 335.738v352.525c0 185.423-150.315 335.738-335.738 335.738zM494.654 176.612v551.729l404.004-275.305z" />
<glyph unicode="&#xe926;" glyph-name="night" horiz-adv-x="999" d="M641.016 206.222c-186.702 25.507-329.024 183.944-329.024 375.621 0 139.672 75.57 261.695 188.053 327.41 10.328 5.464 16.046 14.272 16.046 24.415 0 14.587-11.825 26.413-26.413 26.413-0.725 0-1.443-0.029-2.153-0.086-34.74-1.874-67.415-6.953-98.913-14.975-217.451-57.548-377.726-255.618-377.726-491.123 0-280.526 227.411-507.937 507.937-507.937 218.645 0 405.023 138.148 476.61 331.919 2.113 6.164 2.678 9.218 2.678 12.404 0 14.587-11.825 26.413-26.413 26.413-7.36 0-14.017-3.010-18.806-7.867-67.76-64.975-159.902-104.978-261.387-104.978-17.805 0-35.322 1.231-52.472 3.614l1.983-0.226z" />
<glyph unicode="&#xe927;" glyph-name="reload" d="M510.193-64c-282.77 0-512 229.23-512 512s229.23 512 512 512c282.77 0 512-229.23 512-512-0.343-282.632-229.368-511.657-511.967-512zM510.193 839.529c-216.236 0-391.529-175.294-391.529-391.529s175.294-391.529 391.529-391.529c216.236 0 391.529 175.294 391.529 391.529-0.342 216.098-175.432 391.187-391.497 391.529z" />
<glyph unicode="&#xe928;" glyph-name="run" horiz-adv-x="1014" d="M702.797 721.067c65.725 0.017 119 53.301 119 119.029 0 65.738-53.291 119.029-119.029 119.029s-119.029-53.291-119.029-119.029c0-0.923 0.011-1.844 0.031-2.762-0.002-65.601 53.289-118.892 119.027-118.892 0 0 0 0 0 0v0zM899.72 756.075c-30.803-52.8-87.176-87.717-151.704-87.717-42.21 0-80.931 14.94-111.162 39.822l-42.584 24.265c-47.624 33.602-106.864 53.706-170.8 53.706-106.609 0-200.162-55.898-252.95-139.984-46.24-64.259 58.786-124.649 103.422-62.509 29.748 50.856 84.095 84.475 146.295 84.475 19.698 0 38.609-3.372 56.187-9.57-40.567-67.903-74.701-135.295-122.837-231.568s-154.913-175.043-257.313-112.903c-10.769 8.854-24.696 14.222-39.877 14.222-34.802 0-63.015-28.213-63.015-63.015 0-25.132 14.712-46.828 35.994-56.944 43.617-25.375 95.554-40.259 150.968-40.259 95.781 0 181.176 44.468 236.666 113.884l10.094 0.605c70.9-30.063 132.056-67.066 187.022-111.43 36.884-55.028 71.277-119.3 98.513-187.213 12.327-27.465 33.083-41.475 57.111-41.475 33.407 0 60.488 27.081 60.488 60.488 0 9.379-2.135 18.259-5.944 26.182-33.633 86.876-76.079 162.274-127.59 230.439-42.91 34.3-92.718 68.48-145.374 98.207q49.942 110.349 111.207 214.499c25.905-8.222 55.699-12.96 86.6-12.96 106.705 0 200.214 56.495 252.248 141.206 46.246 64.301-58.78 124.691-103.416 62.551v0z" />
<glyph unicode="&#xe929;" glyph-name="helper" horiz-adv-x="1036" d="M913.955-64h-125.626l-57.457 420.215h240.54l-57.457-420.215zM937.328 750.623h-29.215l-56.97-56.97-56.97 56.97h-29.215c-53.784 0-97.385-43.601-97.385-97.385v-296.049h369.088v296.049c0 0.006 0 0.013 0 0.019 0 53.784-43.601 97.385-97.385 97.385-0.685 0-1.368-0.007-2.050-0.021zM931.971 879.171c0-44.641-36.189-80.829-80.829-80.829s-80.829 36.189-80.829 80.829c0 44.641 36.189 80.829 80.829 80.829s80.829-36.189 80.829-80.829zM271.216 750.623h-31.65l-56.97-56.97-56.97 56.97h-29.215c-53.784 0-97.385-43.601-97.385-97.385v-173.345h369.088v173.345c0 0 0 0.001 0 0.001 0 53.613-43.323 97.107-96.871 97.383zM265.373 879.171c0-44.641-36.189-80.829-80.829-80.829s-80.829 36.189-80.829 80.829c0 44.641 36.189 80.829 80.829 80.829s80.829-36.189 80.829-80.829zM0 503.266h578.952v-48.692h-578.952v48.692zM317.474 190.174h281.442c29.043 0 52.588-23.544 52.588-52.588v-148.999c0-29.043-23.544-52.588-52.588-52.588h-281.442c-29.043 0-52.588 23.544-52.588 52.588v148.999c0 29.043 23.544 52.588 52.588 52.588zM555.58 86.459h-194.769v114.914c0 44.103 35.753 79.855 79.855 79.855 0 0 0 0 0 0h35.058c0 0 0 0 0 0 44.103 0 79.855-35.753 79.855-79.855v-114.914zM409.503 135.152h97.385v66.222c0 17.211-13.952 31.163-31.163 31.163 0 0 0 0 0 0h-35.058c0 0 0 0 0 0-17.211 0-31.163-13.952-31.163-31.163v-66.222z" />
<glyph unicode="&#xe92a;" glyph-name="boldArrow" horiz-adv-x="707" d="M195.223-64l-195.223 195.223 316.777 316.777-316.777 316.777 195.223 195.223 512-512-512-512z" />
<glyph unicode="&#xe92b;" glyph-name="electro" horiz-adv-x="1026" d="M259.635 799.026c-4.729 4.902-11.356 7.946-18.694 7.946s-13.964-3.044-18.686-7.938c-153.711-169.29-70.628-534.856-61.281-571.204l-153.704-153.704c-4.589-4.679-7.422-11.096-7.422-18.174s2.833-13.495 7.426-18.179l92.426-92.426c4.679-4.589 11.096-7.422 18.174-7.422s13.495 2.833 18.179 7.426l153.7 153.7c75.331-19.377 161.901-30.713 251.048-31.155 9.74-0.651 20.785-1.021 31.916-1.021 108.3 0 208.414 35.047 289.62 94.418 3.514 3.762 6.557 10.388 6.557 17.726s-3.044 13.964-7.938 18.686zM481.882 647.4c4.679-4.589 11.096-7.422 18.174-7.422s13.495 2.833 18.179 7.426l191.087 191.087c13.289 13.289 21.509 31.648 21.509 51.927 0 40.557-32.878 73.436-73.436 73.436-20.279 0-38.638-8.22-51.927-21.509l-191.091-191.091c-4.589-4.679-7.422-11.096-7.422-18.174s2.833-13.495 7.426-18.179zM1005.306 644.284c-13.080 13.735-31.506 22.277-51.927 22.277s-38.847-8.542-51.899-22.247l-186.965-191.121c-4.589-4.679-7.422-11.096-7.422-18.174s2.833-13.495 7.426-18.179l65.424-65.424c4.679-4.589 11.096-7.422 18.174-7.422s13.495 2.833 18.179 7.426l191.087 191.087c13.735 13.080 22.277 31.506 22.277 51.927s-8.542 38.847-22.247 51.899l-0.029 0.028z" />
<glyph unicode="&#xe92c;" glyph-name="bag" horiz-adv-x="756" d="M223.124 844.665l26.408 3.234h26.408v53.895h215.579v-57.667l26.408-2.695 26.408-4.312v73.836c0 24.11-19.545 43.655-43.655 43.655h-236.598c-24.11 0-43.655-19.545-43.655-43.655 0 0 0 0 0 0v-66.291zM541.103 824.185l-26.408 4.851-26.408 3.234c-35.032 3.234-72.219 3.234-110.484 3.234h-40.421c-21.019 0-42.038 0-61.979 0h-26.408l-26.408-3.234c-131.503-21.558-222.585-111.023-222.585-485.053 0-146.055 49.044-282.947 126.114-317.44v-72.219c0-8.93 7.239-16.168 16.168-16.168h67.907c8.93 0 16.168 7.239 16.168 16.168 0 0 0 0 0 0v40.96c38.784-4.236 83.764-6.652 129.309-6.652 7.594 0 15.172 0.067 22.733 0.201 5.855-0.16 14.098-0.242 22.359-0.242 46.784 0 92.954 2.627 138.371 7.742l-5.572-47.937c0-8.93 7.239-16.168 16.168-16.168h68.446c8.93 0 16.168 7.239 16.168 16.168 0 0 0 0 0 0v74.375c74.375 35.032 120.724 171.924 120.724 314.745 0 355.705-87.848 454.872-215.579 485.053v0zM121.802 239.966c0 454.333 97.011 485.053 256.539 485.053s256.539-32.876 256.539-485.053c0-9.674-7.842-17.516-17.516-17.516s-17.516 7.842-17.516 17.516c0 452.177-97.549 452.177-221.507 452.177s-221.507 0-221.507-452.177c0-9.674-7.842-17.516-17.516-17.516s-17.516 7.842-17.516 17.516v0z" />
<glyph unicode="&#xe92d;" glyph-name="back" horiz-adv-x="1287" d="M861.013 107.52h-671.573v170.667h671.573c141.385 0 256 114.615 256 256s-114.615 256-256 256h-861.013v170.667h861.013c235.641 0 426.667-191.025 426.667-426.667s-191.025-426.667-426.667-426.667zM354.133 436.053c0 29.013-37.547 0-37.547 0l-303.787-222.72c-4.938-4.251-8.046-10.509-8.046-17.493s3.108-13.243 8.016-17.468c25.63-25.625 309.79-231.279 309.79-231.279s29.013-29.013 31.573 5.973v482.987z" />
<glyph unicode="&#xe92e;" glyph-name="changeflight" horiz-adv-x="690" d="M125.053 720.827v0c-3.817-2.388-6.318-6.569-6.318-11.334 0-7.359 5.966-13.325 13.325-13.325 1.152 0 2.27 0.146 3.336 0.421l185.095 61.481-34.168-56.718c-1.069-1.626-1.704-3.62-1.704-5.762 0-5.85 4.742-10.592 10.592-10.592 1.879 0 3.644 0.489 5.175 1.348l36.164 18.765 2.733 2.050 107.628 112.411 132.912 68.335c50.226 26.992 44.418 47.835 41.343 53.643-4.088 6.996-10.904 12.020-18.952 13.637-7.421 1.685-15.734 2.633-24.269 2.633s-16.849-0.948-24.841-2.745c-1.452-0.133-4.004-0.291-6.593-0.291s-5.141 0.157-7.647 0.463c-14.049-0.030-23.616-0.030-71.451-25.314l-261.723-136.67-102.503 52.618c-1.785 0.948-3.903 1.504-6.15 1.504s-4.365-0.556-6.223-1.539l-17.011-8.849c-4.241-2.287-7.074-6.696-7.074-11.768 0-3.191 1.122-6.121 2.993-8.415l70.366-87.786zM345.433-65.025c-160.397 0-290.424 130.027-290.424 290.424s130.027 290.424 290.424 290.424c160.397 0 290.424-130.027 290.424-290.424-0.194-160.318-130.105-290.229-290.405-290.424zM345.433 447.487c-122.656 0-222.089-99.433-222.089-222.089s99.433-222.089 222.089-222.089c122.656 0 222.089 99.433 222.089 222.089-0.194 122.578-99.511 221.895-222.070 222.089zM512.513 270.842l88.836-88.836 88.836 88.836h-177.671zM177.671 182.006l-88.836 88.836-88.836-88.836h177.671z" />
<glyph unicode="&#xe92f;" glyph-name="info2" horiz-adv-x="241" d="M-6.368 51.9c-0.226 2.715-0.355 5.876-0.355 9.067 0 30.472 11.76 58.198 30.988 78.886 21.869 18.341 50.41 29.526 81.563 29.526 3.096 0 6.166-0.11 9.207-0.328 1.080 0.086 2.827 0.121 4.582 0.121 31.734 0 60.758-11.606 83.057-30.805 20.537-22.432 33.226-52.649 33.226-85.83s-12.688-63.398-33.477-86.064c-21.22-19.742-49.89-31.918-81.402-31.918-2.249 0-4.483 0.062-6.702 0.184-1.543-0.11-3.712-0.165-5.893-0.165-31.763 0-60.81 11.627-83.118 30.857-19.674 20.439-31.895 48.479-31.895 79.373 0 2.496 0.080 4.974 0.237 7.43zM198.687 287.522h-168.119l-35.662 672.478h238.169z" />
<glyph unicode="&#xe930;" glyph-name="kids" horiz-adv-x="996" d="M498.446 932.339c-0.237 0-0.518 0.001-0.799 0.001-77.76 0-151.323-17.966-216.766-49.972l-7.040 48.865-55.321-16.043 21.575-55.321-60.3 99.579-55.321-43.151 78.003-82.982c-122.761-91.726-201.383-236.668-201.383-399.974 0-274.979 222.914-497.893 497.893-497.893s497.893 222.914 497.893 497.893c0 274.979-222.914 497.893-497.893 497.893-0.19 0-0.38 0-0.57 0h0.030zM498.446 57.707c-207.976 0.121-376.527 168.746-376.527 376.739 0 28.421 3.147 56.107 9.112 82.729l240.175-2.513v101.238l103.451-101.238h392.782c5.881-24.936 9.253-53.567 9.253-82.985 0-208.067-168.672-376.739-376.739-376.739-0.53 0-1.060 0.001-1.59 0.003h0.082zM411.038 394.615c0-30.553-24.768-55.321-55.321-55.321s-55.321 24.768-55.321 55.321c0 30.553 24.768 55.321 55.321 55.321s55.321-24.768 55.321-55.321v0zM715.306 394.615c0-30.553-24.768-55.321-55.321-55.321s-55.321 24.768-55.321 55.321c0 30.553 24.768 55.321 55.321 55.321s55.321-24.768 55.321-55.321v0zM508.957 176.648c63.549 0.301 117.105 42.74 134.181 100.798l-268.612 0.994c17.326-59.051 70.882-101.491 134.396-101.791h0.035z" />
<glyph unicode="&#xe931;" glyph-name="none" d="M149.86 188.933l620.933 620.933 103.489-103.489-620.933-620.933-103.489 103.489zM511.756-64.488c-0.134 0-0.292 0-0.451 0-282.905 0-512.244 229.339-512.244 512.244s229.339 512.244 512.244 512.244c141.564 0 269.716-57.426 362.431-150.253l0.005-0.005c92.564-92.675 149.808-220.646 149.808-361.986 0-282.746-229.083-511.987-511.769-512.244zM511.756 813.645c-202.003-0.095-365.722-163.872-365.722-365.888 0-202.075 163.814-365.889 365.889-365.889s365.889 163.814 365.889 365.889c0 101.2-41.085 192.804-107.486 259.042-66.040 66.019-157.251 106.847-257.999 106.847-0.2 0-0.4 0-0.601 0z" />
<glyph unicode="&#xe932;" glyph-name="seat4" horiz-adv-x="693" d="M492.983 506.514c-0.090-0.001-0.196-0.001-0.302-0.001-11.101 0-21.159 4.47-28.471 11.707l-92.157 92.157c-5.997 7.016-9.647 16.194-9.647 26.226 0 22.352 18.12 40.472 40.472 40.472 10.031 0 19.21-3.649 26.281-9.693l63.335-63.344 133.12 133.12c7.016 5.997 16.194 9.647 26.226 9.647 22.352 0 40.472-18.12 40.472-40.472 0-10.031-3.649-19.21-9.693-26.281l-161.843-161.834c-7.152-7.082-16.938-11.515-27.759-11.702zM668.038 146.164l14.141 81.92c0.882 4.838 1.386 10.406 1.386 16.092 0 51.976-42.135 94.11-94.11 94.11-0.144 0-0.289 0-0.433-0.001h-341.311l-117.029 363.276v195.048c0 35.548-28.818 64.366-64.366 64.366v0c-35.548 0-64.366-28.818-64.366-64.366 0 0 0 0 0 0v-195.048l146.286-552.472h211.627l-54.126-132.145h-226.743v-78.019h507.611v78.019h-202.85l54.126 132.145h234.057z" />
<glyph unicode="&#xe933;" glyph-name="terminal" horiz-adv-x="1147" d="M526.507 416.427q29.867 69.973 49.493 109.227c10.255 19.713 19.884 35.898 30.286 51.526 8.694 12.655 19.362 25.491 31.143 37.21 12.267 12.39 27.051 22.241 43.528 28.727 16.593 6.255 34.787 9.705 53.786 9.705 0.892 0 1.783-0.008 2.671-0.023l163.706 0.002v-122.88c0-11.311 9.169-20.48 20.48-20.48 0.12-0.003 0.261-0.004 0.403-0.004 5.533 0 10.531 2.289 14.098 5.972l204.805 204.805c3.771 3.845 6.098 9.117 6.098 14.933s-2.327 11.088-6.102 14.937l-203.943 203.943c-3.984 3.925-9.345 6.462-15.293 6.823-0.327 0.016-0.633 0.023-0.94 0.023-10.84 0-19.627-8.787-19.627-19.627 0-0.307 0.007-0.612 0.021-0.916l-0.002-120.277h-163.84c-1.912 0.043-4.166 0.067-6.425 0.067-28.058 0-55.238-3.762-81.062-10.808-23.867-6.606-46.546-15.927-67.73-27.625-20.563-11.469-39.643-25.927-56.408-42.7-16.534-16.236-31.904-33.499-46.066-51.745-14.76-19.623-28.323-40.542-40.418-62.387q-22.743-41.176-35.543-70.189l-31.573-70.827q-29.867-69.973-50.347-109.227c-10.237-19.697-19.867-35.883-30.275-51.506-8.721-12.669-19.389-25.504-31.158-37.234-12.25-12.408-27.038-22.262-43.528-28.726-16.589-6.252-34.783-9.702-53.782-9.702-0.892 0-1.783 0.008-2.671 0.023l-143.226-0.002c-0.26 0.012-0.566 0.019-0.873 0.019-10.84 0-19.627-8.787-19.627-19.627 0-0.307 0.007-0.612 0.021-0.916l-0.002-122.837c-0.012-0.26-0.019-0.566-0.019-0.873 0-10.84 8.787-19.627 19.627-19.627 0.307 0 0.612 0.007 0.916 0.021l143.317-0.002c1.943-0.044 4.232-0.070 6.528-0.070 28.023 0 55.167 3.763 80.954 10.81 23.87 6.597 46.549 15.919 67.729 27.623 20.569 11.472 39.649 25.93 56.414 42.702 16.876 16.297 32.518 33.561 46.958 51.82 14.726 19.55 28.289 40.469 40.382 62.315q22.741 41.173 36.394 70.186l31.573 70.827zM20.48 649.387h143.36c0.304 0.002 0.663 0.004 1.022 0.004 18.345 0 35.885-3.446 52.008-9.725 14.359-5.381 27.622-12.874 39.466-22.104 11.992-10.178 22.688-21.958 31.701-34.991 8.679-12.148 17.155-25.531 24.88-39.388l25.003-48.249c26.919 66.347 55.535 122.477 88.268 175.807-58.722 82.081-155.079 139.073-264.746 139.073-0.057 0-0.113 0-0.17 0h-143.351c-0.26 0.012-0.566 0.019-0.873 0.019-10.84 0-19.627-8.787-19.627-19.627 0-0.307 0.007-0.612 0.021-0.916l-0.002-122.837c-0.012-0.26-0.019-0.566-0.019-0.873 0-10.84 8.787-19.627 19.627-19.627 0.307 0 0.612 0.007 0.916 0.021l-0.043-0.002zM936.96 380.587c-3.984 3.925-9.345 6.462-15.293 6.823-0.327 0.016-0.633 0.023-0.94 0.023-10.84 0-19.627-8.787-19.627-19.627 0-0.307 0.007-0.612 0.021-0.916l-0.002-122.837h-163.84c-0.349-0.003-0.762-0.005-1.176-0.005-18.292 0-35.779 3.446-51.847 9.725-14.369 5.353-27.636 12.849-39.464 22.099-12.016 10.17-22.714 21.952-31.712 34.998-8.72 12.177-17.197 25.56-24.904 39.429l-24.978 48.206c-27.618-66.79-56.21-122.892-88.579-176.454 14.674-10.759 26.449-25.243 39.243-38.753q18.616-19.459 34.829-33.966c10.928-9.672 23.253-18.184 36.534-25.118l38.56-18.402c11.568-5.215 25.035-9.368 39.090-11.801l41.977-6.972h197.973v-122.88c0-0.015 0-0.033 0-0.050 0-11.311 9.169-20.48 20.48-20.48 5.668 0 10.798 2.302 14.506 6.023l204.801 204.801c3.527 3.795 5.691 8.898 5.691 14.507s-2.164 10.712-5.704 14.52z" />
<glyph unicode="&#xe934;" glyph-name="transfer2" horiz-adv-x="1410" d="M347.654-64l-347.654 347.654 74.798 74.798 272.856-272.856 272.856 272.856 74.798-74.798-347.654-347.654zM291.29 13.151l3.357 874.397 105.349-0.405-3.357-874.397-105.349 0.405zM1334.782 537.547l-272.856 273.909-273.909-273.909-73.745 74.798 347.654 347.654 347.654-347.654-74.798-74.798zM1003.029 14.199l3.357 874.397 105.349-0.405-3.357-874.397-105.349 0.405z" />
<glyph unicode="&#xe935;" glyph-name="backflight" horiz-adv-x="746" d="M537.263 34.526h-488v97.263h488c61.391 0 111.158 49.767 111.158 111.158s-49.767 111.158-111.158 111.158h-488v97.263h488c102.793-15.060 180.828-102.627 180.828-208.421s-78.035-193.361-179.685-208.283zM200 223.579c0 16.842-21.474 0-21.474 0l-172.632-126.316c-2.803-2.481-4.562-6.088-4.562-10.105s1.758-7.624 4.547-10.093c14.33-14.328 177.277-132.644 177.277-132.644s16.842-16.421 18.105 3.368v277.895zM77.053 666.947v0c-4.704-2.943-7.786-8.095-7.786-13.968 0-9.069 7.352-16.421 16.421-16.421 1.42 0 2.797 0.18 4.111 0.519l228.097 75.765-42.105-69.895c-1.317-2.004-2.1-4.461-2.1-7.101 0-7.209 5.844-13.053 13.053-13.053 2.316 0 4.491 0.603 6.377 1.661l44.566 23.124 3.368 2.526 132.632 138.526 163.789 84.211c61.895 33.263 54.737 58.947 50.947 66.105-5.037 8.622-13.437 14.813-23.355 16.805-9.145 2.077-19.39 3.245-29.908 3.245s-20.763-1.169-30.612-3.383c-1.79-0.164-4.935-0.358-8.125-0.358s-6.335 0.194-9.424 0.57c-17.313-0.037-29.103-0.037-88.050-31.195l-322.526-168.421-126.316 64.842c-2.2 1.168-4.809 1.854-7.579 1.854s-5.379-0.686-7.668-1.897l-20.963-10.904c-5.226-2.818-8.717-8.252-8.717-14.502 0-3.933 1.383-7.543 3.688-10.37l86.713-108.181z" />
<glyph unicode="&#xe936;" glyph-name="alert" horiz-adv-x="1205" d="M1180.639 94.977l-504.402 818.265c-12.142 29.321-40.528 49.572-73.644 49.572s-61.502-20.251-73.45-49.045l-504.596-818.792c-54.356-88.256-14.612-158.977 88.256-158.977h978.995c102.868 0 142.612 71.306 88.256 158.977v0zM602.594 76.274c-25.824 0-46.758 20.934-46.758 46.758s20.934 46.758 46.758 46.758c25.824 0 46.758-20.934 46.758-46.758s-20.934-46.758-46.758-46.758c0 0 0 0 0 0v0zM649.352 310.064c0-25.824-20.934-46.758-46.758-46.758s-46.758 20.934-46.758 46.758v280.548c0 25.824 20.934 46.758 46.758 46.758s46.758-20.934 46.758-46.758v-280.548z" />
<glyph unicode="&#xe937;" glyph-name="timer" horiz-adv-x="892" d="M780.96 672.923l40.692 40.692 12.263-12.263c5.185-5.255 12.385-8.51 20.346-8.51 15.783 0 28.577 12.795 28.577 28.577 0 7.822-3.143 14.91-8.234 20.071l-60.757 60.757c-5.207 5.207-12.401 8.428-20.346 8.428-15.891 0-28.774-12.883-28.774-28.774 0-7.946 3.221-15.139 8.428-20.346l13.378-13.378-40.135-39.578c-68.684 63.731-157.93 106.17-256.743 116.344l-1.904 37.507h28.986c0 0 0 0 0 0 26.784 0 48.496 21.713 48.496 48.496s-21.713 48.496-48.496 48.496c0 0 0 0 0 0h-145.489c0 0 0 0 0 0-26.784 0-48.496-21.713-48.496-48.496s21.713-48.496 48.496-48.496c0 0 0 0 0 0h31.774v-37.348c-106.137-10.557-199.835-56.886-270.399-126.582l-25.039-26.712c-67.199-77.632-108.142-179.599-108.142-291.128 0-246.288 199.656-445.944 445.944-445.944s445.944 199.656 445.944 445.944c0 111.529-40.943 213.496-108.617 291.69l0.476-0.562zM446.502 12.368c-0.165 0-0.361 0-0.557 0-204.727 0-370.691 165.964-370.691 370.691s165.964 370.691 370.691 370.691c204.727 0 370.691-165.964 370.691-370.691 0 0 0 0 0 0 0-204.531-165.647-370.374-370.103-370.691h-0.030zM474.931 415.948v233.563l-26.757 43.48-30.659-43.48v-233.563c-15.496-10.073-25.6-27.302-25.6-46.89 0-30.786 24.957-55.743 55.743-55.743 30.025 0 54.506 23.738 55.698 53.471 0.005 0.245 0.005 0.407 0.005 0.568 0 20.75-11.338 38.853-28.157 48.45l-0.274 0.144z" />
<glyph unicode="&#xe938;" glyph-name="umbrella" horiz-adv-x="1158" d="M613.57 899.39v26.015c0 19.182-15.55 34.733-34.733 34.733s-34.733-15.55-34.733-34.733v-26.015c-289.488-14.668-521.963-210.889-544.381-457.756 31.798 20.71 70.711 33.027 112.501 33.027 2.19 0 4.372-0.034 6.545-0.101 74.13 0.008 136.123-31.266 150.238-72.502h6.089c14.391 41.237 76.385 72.234 150.279 72.234 1.779 0.055 3.872 0.086 5.972 0.086 41.911 0 80.92-12.421 113.548-33.783l-0.791-347.12c0-48.529-39.341-87.87-87.87-87.87s-87.87 39.341-87.87 87.87c0 19.182-15.55 34.733-34.733 34.733s-34.733-15.55-34.733-34.733c0-86.818 70.38-157.198 157.198-157.198s157.198 70.38 157.198 157.198v348.16c31.783 20.878 70.741 33.302 112.6 33.302 2.155 0 4.302-0.033 6.442-0.098 74.134 0.008 136.128-31.266 150.243-72.503h6.089c14.391 41.237 76.108 72.234 150.279 72.234 1.779 0.055 3.872 0.086 5.972 0.086 41.911 0 80.92-12.421 113.548-33.783-23.209 247.63-255.408 443.297-545.172 458.795v0z" />
<glyph unicode="&#xe939;" glyph-name="meal" horiz-adv-x="1404" d="M1403.136 919.808c0.007 0.282 0.011 0.614 0.011 0.946 0 22.197-17.995 40.192-40.192 40.192-20.637 0-37.641-15.553-39.93-35.577l-58.897-436.921c-0.23-1.615-0.361-3.48-0.361-5.376 0-22.144 17.909-40.106 40.033-40.192h23.56v-468.48c0-21.208 17.192-38.4 38.4-38.4s38.4 17.192 38.4 38.4zM207.104 937.472c-14.138 0-25.6-11.462-25.6-25.6v-143.872h-38.4v143.36c0 14.138-11.462 25.6-25.6 25.6s-25.6-11.462-25.6-25.6v-143.36h-38.4v143.36c0 14.138-11.462 25.6-25.6 25.6s-25.6-11.462-25.6-25.6v-235.52c0.071-50.65 32.389-93.733 77.52-109.826l0.816-591.614c0-21.208 17.192-38.4 38.4-38.4s38.4 17.192 38.4 38.4v591.36c45.947 16.347 78.265 59.43 78.336 110.071v235.529c0.006 0.208 0.010 0.453 0.010 0.698 0 14.138-11.462 25.6-25.6 25.6-1.086 0-2.156-0.068-3.207-0.199zM732.16 914.176c-268.631 0-486.4-217.769-486.4-486.4s217.769-486.4 486.4-486.4c268.631 0 486.4 217.769 486.4 486.4s-217.769 486.4-486.4 486.4zM732.16 69.376c-197.939 0-358.4 160.461-358.4 358.4s160.461 358.4 358.4 358.4c197.939 0 358.4-160.461 358.4-358.4s-160.461-358.4-358.4-358.4zM732.16 722.176c-162.593 0-294.4-131.807-294.4-294.4s131.807-294.4 294.4-294.4c162.593 0 294.4 131.807 294.4 294.4s-131.807 294.4-294.4 294.4zM732.16 184.576c-134.316 0-243.2 108.884-243.2 243.2s108.884 243.2 243.2 243.2c134.316 0 243.2-108.884 243.2-243.2-0.146-134.257-108.943-243.054-243.186-243.2z" />
<glyph unicode="&#xe93a;" glyph-name="aeroexpress" horiz-adv-x="663" d="M661.584 263.479l-42.767 377.475c-5.714 47.782-31.404 88.625-68.346 114.501l-26.625-299.424c-6.128-62.009-58.013-110.049-121.119-110.049-0.761 0-1.519 0.007-2.277 0.021l-138.428-0.002c-0.644-0.012-1.402-0.019-2.163-0.019-63.105 0-114.99 48.040-121.078 109.544l-26.142 300.276c-37.465-26.224-63.155-67.066-68.793-114.074l-42.843-378.249c-0.512-4.884-0.804-10.552-0.804-16.287 0-91.373 74.073-165.446 165.446-165.446 0.989 0 1.975 0.009 2.96 0.026l325.725-0.002c0.776-0.013 1.693-0.021 2.61-0.021 91.373 0 165.446 74.073 165.446 165.446 0 5.735-0.292 11.401-0.861 16.986zM220.863 915.024l40.157-98.184h46.783l-40.157 100.392h126.695l-40.157-100.392h46.783l40.157 98.184c18.598-5.171 32.486-20.745 35.109-39.906l43.598-0.25c-3.86 47.319-43.183 84.267-91.15 84.329h-194.165c-47.973-0.063-87.296-37.011-91.135-84.002l43.549-0.327c2.463 19.129 15.837 34.589 33.591 40.066zM211.225 786.723c-0.114 0-0.25 0-0.385 0-18.579 0-36.472-2.938-53.24-8.374l28.929-318.303c3.702-38.010 35.49-67.475 74.16-67.475 0.469 0 0.938 0.004 1.405 0.013l138.471-0.001c0.397-0.008 0.866-0.012 1.335-0.012 38.67 0 70.458 29.466 74.136 67.17l27.732 319.553c-15.547 5.094-33.44 8.032-52.020 8.032-0.135 0-0.271 0-0.406 0h-240.92zM67.865-64h66.259l60.637 118.463h-66.46l-60.436-118.463zM467.827 54.463l60.637-118.463h66.259l-60.436 118.463h-66.46z" />
<glyph unicode="&#xe93b;" glyph-name="captcha-reload" horiz-adv-x="1026" d="M884.736 795.477c-92.881 101.219-225.758 164.456-373.407 164.523-0.108 0-0.222 0-0.336 0-282.77 0-512-229.23-512-512s229.23-512 512-512c201.289 0 375.447 116.157 459.103 285.096l-4.123 2.989-114.005 59.392c-61.594-128.148-190.383-215.035-339.466-215.035-207.365 0-375.467 168.102-375.467 375.467 0 206.708 167.039 374.402 373.498 375.462 109.867-0.222 208.422-48.032 276.267-123.887l-156.699-157.371h395.947v394.581z" />
<glyph unicode="&#xe93c;" glyph-name="sports-equipment" horiz-adv-x="765" d="M350.831 874.518c0 47.21-38.271 85.482-85.482 85.482 0 0 0 0 0 0v0c0 0 0 0 0 0-47.21 0-85.482-38.271-85.482-85.482 0 0 0 0 0 0v-853.482c0-47.21 38.271-85.482 85.482-85.482 0 0 0 0 0 0v0c0 0 0 0 0 0 47.21 0 85.482 38.271 85.482 85.482 0 0 0 0 0 0v853.482zM233.294 533.927v30.275c0.718 15.903 13.785 28.525 29.801 28.525 0.48 0 0.957-0.011 1.431-0.034l-0.067 0.003c0.403 0.021 0.876 0.033 1.351 0.033 15.245 0 27.603-12.358 27.603-27.603 0-0.325-0.006-0.648-0.017-0.97l0.001-30.228h-61.885zM295.179 365.19v-26.713c0.020-0.414 0.031-0.898 0.031-1.386 0-16.351-12.774-29.718-28.887-30.666l-0.084-0.004c-17.222 0.729-30.936 14.754-31.165 32.033v26.735h58.769zM110.414 80.696h-15.137v441.656c8.482 6.576 13.889 16.768 13.889 28.222 0 0.879-0.032 1.75-0.094 2.613l0.007 96.497c0 22.867-18.538 41.405-41.405 41.405s-41.405-18.538-41.405-41.405c0 0 0 0 0 0v-96.612c0.757-12.051 5.886-22.776 13.803-30.721l-0.001-441.654h-13.357c-15.245 0-27.603-12.358-27.603-27.603s12.358-27.603 27.603-27.603h12.466v-61.885c0-15.245 12.358-27.603 27.603-27.603s27.603 12.358 27.603 27.603v61.885h15.137c15.245 0 27.603 12.358 27.603 27.603s-12.358 27.603-27.603 27.603v0zM500.87 960v0c0 0-0.001 0-0.001 0-47.3 0-85.673-38.217-85.926-85.458v-853.506c0.253-47.264 38.626-85.482 85.926-85.482 0 0 0.001 0 0.001 0v0c46.773 0.252 84.592 38.227 84.592 85.035 0 0.157 0 0.314-0.001 0.471v853.458c0.003 0.265 0.005 0.577 0.005 0.89 0 46.718-37.873 84.591-84.591 84.591-0.002 0-0.003 0-0.005 0v0zM530.254 532.591h-61.885v30.275c0.479 15.854 13.445 28.525 29.372 28.525 0.474 0 0.946-0.011 1.414-0.033l-0.066 0.002c0.265 0.009 0.577 0.014 0.89 0.014 15.737 0 28.494-12.757 28.494-28.494 0-0.005 0-0.010 0-0.015v-28.938zM530.254 363.854v-26.713c0.009-0.28 0.014-0.61 0.014-0.941 0-16.591-12.964-30.153-29.314-31.111l-0.085-0.004c-17.12 0.736-30.72 14.794-30.72 32.028 0 0.010 0 0.020 0 0.029v26.712h61.885zM739.061 80.696h-15.137v442.101c8.473 6.403 13.891 16.46 13.891 27.782 0 0.877-0.033 1.747-0.096 2.608l0.007 96.497c0 22.867-18.538 41.405-41.405 41.405s-41.405-18.538-41.405-41.405c0 0 0 0 0 0v-96.612c0.73-12.198 5.86-23.073 13.809-31.173l-0.007-441.203h-12.466c-15.245 0-27.603-12.358-27.603-27.603s12.358-27.603 27.603-27.603h12.466v-61.885c0-15.245 12.358-27.603 27.603-27.603s27.603 12.358 27.603 27.603v61.885h15.137c15.245 0 27.603 12.358 27.603 27.603s-12.358 27.603-27.603 27.603v0z" />
<glyph unicode="&#xe93d;" glyph-name="cart" horiz-adv-x="1139" d="M550.551 30.569c0-52.229-42.34-94.569-94.569-94.569s-94.569 42.34-94.569 94.569c0 52.229 42.34 94.569 94.569 94.569 0 0 0 0 0 0 52.229 0 94.569-42.34 94.569-94.569v0zM933.647 30.569c0-52.229-42.34-94.569-94.569-94.569s-94.569 42.34-94.569 94.569c0 52.229 42.34 94.569 94.569 94.569 0 0 0 0 0 0 52.229 0 94.569-42.34 94.569-94.569v0zM1083.031 659.426h-722.824s-10.24 87.944-16.264 124.085-96.376 81.92-292.141 174.080c-45.779 19.275-84.329-65.054 0-109.026l154.202-71.68c18.687-10.635 32.657-27.739 38.995-48.197 3.17-29.506 0.158-28.301 65.815-492.113 0-0.041 0-0.090 0-0.138 0-34.112 26.501-62.035 60.038-64.303l587.492-0.011c0.202-0.002 0.442-0.004 0.681-0.004 30.080 0 55.010 22.048 59.511 50.865l116.9 346.692s34.334 89.751-52.405 89.751v0z" />
<glyph unicode="&#xe93e;" glyph-name="79cm-inner" horiz-adv-x="861" d="M1.841 623.104l-1.841-0.11 26.495 277.177c5.918 33.989 35.573 59.83 71.268 59.83h46.457c39.954 0 72.342-32.377 72.342-72.315v-246.622c1.355-3.378 2.537-6.844 3.534-10.388l70.197-207.475 364.228 29.871c19.145 1.567 35.936-12.675 37.508-31.81l4.325-52.67c1.572-19.135-12.675-35.922-31.819-37.494l-333.819-27.374 34.703-102.569 428.948 30.595c2.314 0.313 4.985 0.492 7.699 0.492 18.908 0 35.797-8.635 46.938-22.172 7.555-10.235 12.043-22.968 12.043-36.742 0-6.446-0.984-12.66-2.806-18.503l-49.961-141.875c-13.345-43.563-52.372-75.035-99.025-76.945l-494.087-0.005c-45.608 1.456-82.809 35.609-88.98 79.707l-124.347 607.396zM529.963 114.467c3.953 2.054 7.347 4.758 10.177 8.128-0.53-12.202-3.799-21.136-9.806-26.796-6.007-5.617-14.598-8.519-25.783-8.712h-2.854v-11.426h2.637c16.556 0.246 28.936 5.13 37.137 14.646 8.201 9.565 12.299 24.723 12.294 45.468l-0.005 3.953c-0.005 13.615-3.057 24.356-9.165 32.215-6.060 7.907-14.362 11.86-24.911 11.86-6.643 0-12.453-1.514-17.433-4.541-4.98-3.023-8.837-7.391-11.571-13.104-2.685-5.713-4.026-12.13-4.021-19.255 0-6.639 1.249-12.713 3.741-18.229 2.493-5.467 6.007-9.715 10.553-12.742 4.59-3.028 9.96-4.541 16.117-4.541 4.686 0 8.987 1.027 12.892 3.076zM531.791 126.771c-3.809-2.782-7.984-4.175-12.525-4.175-5.862 0-10.549 2.343-14.068 7.029-3.466 4.734-5.202 10.737-5.207 18.012 0 7.468 1.803 13.47 5.414 18.012 3.616 4.585 8.398 6.88 14.357 6.88 5.911 0 10.794-2.782 14.651-8.345 3.862-5.564 5.795-12.79 5.795-21.671l0.005-5.419c-1.76-4.098-4.566-7.54-8.422-10.322zM428.665 75.739l44.141 98.987-0.002 7.613h-72.082l0.004-11.127h57.724l-43.995-95.472h14.211zM346.562 128.844l-148.048-73.642h-0.367v-11.33h0.367l148.048-73.642 4.624 9.256-129.434 64.386h535.661l-129.437-64.386 4.623-9.256 148.051 73.642h0.366v11.33h-0.366l-148.051 73.642-4.623-9.256 129.437-64.386h-535.662l129.435 64.386-4.624 9.256z" />
<glyph unicode="&#xe94b;" glyph-name="79cm-outer" horiz-adv-x="688" d="M19.802 736.62l-1.22-0.073 17.561 183.783c3.922 22.536 23.578 39.67 47.236 39.67h30.792c26.481 0 47.948-21.468 47.948-47.949v-163.523c0.898-2.24 1.681-4.538 2.342-6.887l46.526-137.568 241.411 19.805c12.689 1.042 23.819-8.401 24.859-21.090l2.866-34.922c1.040-12.689-8.401-23.819-21.090-24.86l-221.253-18.153 23.001-68.006 284.306 20.287c1.534 0.206 3.304 0.322 5.105 0.322 12.53 0 23.724-5.724 31.111-14.7 5.006-6.785 7.98-15.229 7.98-24.365 0-4.271-0.649-8.392-1.856-12.268l-33.118-94.068c-8.843-28.885-34.712-49.752-65.634-51.015l-327.48-0.004c-30.229 0.963-54.886 23.608-58.976 52.85l-82.417 402.734zM512.473 123.135l174.63-86.883h0.434v-13.368h-0.434l-174.63-86.883-5.457 10.923 152.68 75.96h-631.853l152.677-75.96-5.454-10.923-174.633 86.883h-0.433v13.368h0.433l174.633 86.883 5.454-10.923-152.677-75.96h631.853l-152.68 75.96 5.457 10.923zM413.381 139.107c6.659 3.455 12.372 8.014 17.138 13.686-0.896-20.549-6.4-35.589-16.511-45.124-10.111-9.454-24.581-14.344-43.41-14.67h-4.81l0.006-19.234h4.44c27.874 0.413 48.716 8.629 62.524 24.657 13.811 16.11 20.708 41.63 20.699 76.566l-0.004 6.656c-0.009 22.934-5.152 41.016-15.435 54.247-10.199 13.317-24.18 19.973-41.941 19.973-11.182 0-20.966-2.548-29.352-7.645s-14.879-12.449-19.48-22.066c-4.519-9.617-6.777-20.428-6.773-32.426 0.003-11.181 2.103-21.412 6.3-30.699 4.196-9.209 10.119-16.359 17.767-21.455 7.731-5.096 16.776-7.645 27.137-7.645 7.894 0 15.129 1.727 21.706 5.178zM416.457 159.823c-6.412-4.688-13.441-7.030-21.088-7.030-9.867 0-17.762 3.945-23.684 11.839-5.841 7.971-8.763 18.082-8.767 30.329-0.004 12.573 3.035 22.684 9.118 30.329 6.082 7.726 14.139 11.589 24.17 11.589 9.95 0 18.173-4.688 24.672-14.056 6.499-9.372 9.752-21.537 9.757-36.495v-9.123c-2.956-6.905-7.682-12.698-14.177-17.382zM242.825 73.89l74.32 166.685-0.004 12.823h-121.365l0.006-18.74h97.19l-74.075-160.768h23.928z" />
</font>
</defs>
</svg>
