<svg xmlns="http://www.w3.org/2000/svg" viewBox="0 0 612 334.74"><title>Ресурс 2</title><path d="M612,57.09C612,163,101.63,279.82,63,279.82c-21.67,0-46.25-5-46.25-25,0-6.67,7.7-16.32,21.22-27.95h0L2.11,163.25A16.36,16.36,0,0,1,10.28,140l6.16-2.46a40.91,40.91,0,0,1,34.34,1.82l65,34.43c25.32-15,54.05-30.75,84.33-46.23L73.4,45.37a16.36,16.36,0,0,1,.2-27.58L84,11.28a73.66,73.66,0,0,1,57.94-8.85L352.76,58.05C418.5,32,477.94,14.15,513.12,14.15c9.4,0,18.81.25,27.89.89L477.33,43.79l-1.52,21.42L574.1,20C597.66,25.64,612,36.13,612,57.09ZM355.49,239.85l78.65,89.34a16.35,16.35,0,0,0,19.18,4l10.53-4.9a49.08,49.08,0,0,0,28.06-50.21l-9.85-84.18a8.18,8.18,0,0,0-10.84-6.77L358.91,226.73A8.18,8.18,0,0,0,355.49,239.85Z"/></svg>