<svg xmlns="http://www.w3.org/2000/svg" viewBox="0 0 24 24" style="enable-background:new 0 0 24 24; fill: #fff"><path  d="M17.86,7.66A21.2,21.2,0,0,1,15,8v.91A.44.44,0,0,1,15,9v1.33a.46.46,0,0,1-.46.47H13.21a.47.47,0,0,1-.47-.47V9A.54.54,0,0,1,13,8.6c0-.23,0-.44,0-.68-.32,0-.66,0-1,0l-1,0a4.94,4.94,0,0,0,0,.68.44.44,0,0,1,.23.42v1.33a.46.46,0,0,1-.46.47H9.53a.47.47,0,0,1-.47-.47V9a.3.3,0,0,1,0-.16V8a17,17,0,0,1-2.87-.29L5.1,18.41a.47.47,0,0,0,.23.5l.89.65a.51.51,0,0,0,.34.11H17.44a.51.51,0,0,0,.34-.11l.89-.65a.52.52,0,0,0,.23-.5Z"/><path d="M10.16,10.19h.08a.48.48,0,0,0,.42-.57C10.5,8.68,10.29,6,11.15,5A1.22,1.22,0,0,1,12,4.53a1.14,1.14,0,0,1,.83.42c.86,1.07.66,3.73.5,4.67a.5.5,0,0,0,.42.57h.07a.51.51,0,0,0,.5-.42,14.44,14.44,0,0,0,.16-2.06,5.47,5.47,0,0,0-.89-3.42l-.16-.15A1.81,1.81,0,0,0,12,3.51a2,2,0,0,0-1.46.63l-.15.15a5.54,5.54,0,0,0-.89,3.42,11.89,11.89,0,0,0,.15,2.06A.51.51,0,0,0,10.16,10.19Z"/></svg>