<svg xmlns="http://www.w3.org/2000/svg" viewBox="0 0 24 24"><defs></defs><path class="cls-1" style="fill:#9b9b9b;" d="M3.5,10.05v8.38A1.57,1.57,0,0,0,5.07,20h.62v.55h2.2V20h.55V8.48H5.07A1.57,1.57,0,0,0,3.5,10.05Z"/><path class="cls-1" style="fill:#9b9b9b;" d="M18.93,8.48H15.56V20h.55v.55h2.2V20h.62a1.57,1.57,0,0,0,1.57-1.57V10.05A1.57,1.57,0,0,0,18.93,8.48Z"/><rect class="cls-1" style="fill:#9b9b9b;" x="9.53" y="8.48" width="4.94" height="11.52"/><path class="cls-1" style="fill:#9b9b9b;" d="M13.47,3H10.53A1.55,1.55,0,0,0,9,4.55V6.39a1.56,1.56,0,0,0,1.55,1.55h2.94A1.56,1.56,0,0,0,15,6.39V4.55A1.55,1.55,0,0,0,13.47,3Zm.45,3.39a.45.45,0,0,1-.45.45h-.1V5.74H10.63v1.1h-.1a.45.45,0,0,1-.45-.45V4.55a.45.45,0,0,1,.45-.45h2.94a.45.45,0,0,1,.45.45V6.39Z"/><rect class="cls-2" style="fill:#db4949;" x="0.99" y="12.29" width="21.98" height="1.59" transform="translate(-4.27 5.96) rotate(-23.86)"/></svg>