<svg xmlns="http://www.w3.org/2000/svg" viewBox="0 0 24 24" style="enable-background:new 0 0 24 24; fill: #fff"><path d="M19.21,13.74h0l-.22,0H13.75l-4,.35L9,12.13h6.24a.92.92,0,0,0,.94-.94h0a.91.91,0,0,0-.94-.93H8.34L7.15,7h0V3.63a1.37,1.37,0,0,0-1.4-1.4,1.38,1.38,0,0,0-1.41,1.4V7.14a1.68,1.68,0,0,0,.1.51,1.72,1.72,0,0,0,.08.28l3.26,9a1.83,1.83,0,0,0,.26.45,1.28,1.28,0,0,0,1.14.54h3v2.4H8.31a.69.69,0,0,0-.7.71v.08a.69.69,0,0,0,.7.7h9.54a.69.69,0,0,0,.7-.7V21a.69.69,0,0,0-.7-.71H14v-2.4h4.3a.87.87,0,0,0,.94-.69l.62-2.3a.92.92,0,0,0-.66-1.15"/></svg>