<?xml version="1.0" ?><!DOCTYPE svg  PUBLIC '-//W3C//DTD SVG 1.1//EN'
        'http://www.w3.org/Graphics/SVG/1.1/DTD/svg11.dtd'>
<svg enable-background="new 0 0 48 48" height="48px" version="1.1" viewBox="0 0 48 48" width="48px" xml:space="preserve"
     xmlns="http://www.w3.org/2000/svg" xmlns:xlink="http://www.w3.org/1999/xlink"><g id="Layer_4"><g><path d="M34.485,29.916h-4.61H18.127h-4.988c-0.911,1.717-1.433,3.673-1.433,5.756    c0,6.788,5.505,12.296,12.295,12.296s12.296-5.508,12.296-12.296c0-2.083-0.521-4.039-1.437-5.756H34.485z M32.229,35.672    c0,4.545-3.684,8.232-8.229,8.232s-8.229-3.688-8.229-8.232c0-0.005,0.001-0.01,0.001-0.014h16.457    C32.229,35.662,32.229,35.667,32.229,35.672z" fill="#ffffff"/><path
        d="M45.65,20.927c-1.478-1.834-2.828,0-2.828,0h-0.005c-0.83,0.892-1.989,1.464-3.294,1.509v0.009h-0.107    c-0.023,0-0.037,0.005-0.061,0.005c-0.01,0-0.02-0.005-0.033-0.005h-0.825h-1.596H8.525v-0.002    c-1.439-0.047-2.698-0.741-3.534-1.792l-0.01,0.007c0,0-1.399-1.414-2.576,0.19c-0.462,0.729-0.736,1.586-0.736,2.515    c0,2.383,1.754,4.339,4.039,4.695c0.121,0.023,0.233,0.07,0.362,0.07h33.013h1.839h0.859v-0.021    c2.527-0.114,4.55-2.185,4.55-4.744C46.331,22.468,46.083,21.636,45.65,20.927z"
        fill="#ffffff"/><path
        d="M18.488,14.945c0,0,0.768,0.437,0.768,1.874v0.753c-0.045,0.488-0.228,1.11-0.88,1.183v1.902h0.88h9.493    h0.849v-1.902c-0.739-0.211-0.84-1.163-0.849-1.56v-0.612c0-0.967,0.849-1.708,0.849-1.708v-0.042    c1.752-1.555,2.881-3.8,2.881-6.323c0-4.685-3.796-8.478-8.478-8.478s-8.478,3.793-8.478,8.478c0,2.57,1.17,4.846,2.977,6.398    L18.488,14.945z M18.296,8.232c0-3.101,2.484-5.615,5.571-5.688c0.593,0.054,1.002,0.33,1.007,0.332    c0.236,0.252,0.334,0.617-0.461,0.96c-0.039,0.017-0.051,0.033-0.086,0.052c-2.351,0.703-4.077,2.856-4.077,5.439    c0,0.71,0.15,1.377,0.396,1.996c0.005,0.005-0.002,0.009,0,0.014c0.189,0.549,0.293,0.972,0.298,0.99    c-0.197,0.49-0.84,0.009-1.034-0.155C18.917,11.155,18.296,9.771,18.296,8.232z"
        fill="#ffffff"/></g></g></svg>