<?xml version="1.0" encoding="UTF-8" standalone="no"?>
<!-- Created with Inkscape (http://www.inkscape.org/) -->

<svg
   xmlns:dc="http://purl.org/dc/elements/1.1/"
   xmlns:cc="http://creativecommons.org/ns#"
   xmlns:rdf="http://www.w3.org/1999/02/22-rdf-syntax-ns#"
   xmlns:svg="http://www.w3.org/2000/svg"
   xmlns="http://www.w3.org/2000/svg"
   xmlns:sodipodi="http://sodipodi.sourceforge.net/DTD/sodipodi-0.dtd"
   xmlns:inkscape="http://www.inkscape.org/namespaces/inkscape"
   width="210mm"
   height="297mm"
   viewBox="0 0 210 297"
   version="1.1"
   id="svg8"
   inkscape:version="0.92.3 (unknown)"
   sodipodi:docname="drawing.svg">
  <defs
     id="defs2">
    <clipPath
       id="clipPath831"
       clipPathUnits="userSpaceOnUse">
      <path
         inkscape:connector-curvature="0"
         id="path829"
         d="M 0,841.89 H 595.28 V 0 H 0 Z" />
    </clipPath>
  </defs>
  <sodipodi:namedview
     id="base"
     pagecolor="#ffffff"
     bordercolor="#666666"
     borderopacity="1.0"
     inkscape:pageopacity="0.0"
     inkscape:pageshadow="2"
     inkscape:zoom="1.4"
     inkscape:cx="258.23827"
     inkscape:cy="423.36074"
     inkscape:document-units="mm"
     inkscape:current-layer="layer1"
     showgrid="false"
     inkscape:window-width="960"
     inkscape:window-height="1025"
     inkscape:window-x="0"
     inkscape:window-y="27"
     inkscape:window-maximized="0" />
  <metadata
     id="metadata5">
    <rdf:RDF>
      <cc:Work
         rdf:about="">
        <dc:format>image/svg+xml</dc:format>
        <dc:type
           rdf:resource="http://purl.org/dc/dcmitype/StillImage" />
        <dc:title></dc:title>
      </cc:Work>
    </rdf:RDF>
  </metadata>
  <g
     inkscape:label="Layer 1"
     inkscape:groupmode="layer"
     id="layer1">
    <g
       transform="matrix(0.35277777,0,0,-0.35277777,-3.9125182,364.11549)"
       inkscape:label="logo"
       id="g823">
      <g
         id="g825">
        <g
           clip-path="url(#clipPath831)"
           id="g827">
          <g
             transform="translate(242.6396,678.0668)"
             id="g833">
            <path
               inkscape:connector-curvature="0"
               id="path835"
               style="fill:#2470ae;fill-opacity:1;fill-rule:nonzero;stroke:none"
               d="m 0,0 c -6.538,4.514 -10.178,6.354 -15.875,7.1 -4.313,0.564 -7.736,-0.635 -7.736,-0.635 0,0 8.585,-3.608 15.656,-13.393 2.298,-3.18 4.145,-6.2 5.716,-9.146 -0.002,0.005 -0.006,0.012 -0.006,0.012 0,0 5.204,-3.72 11.929,-4.281 2.912,-0.243 6.063,-0.1 9.745,0.72 -0.054,0.07 -0.105,0.134 -0.147,0.192 C 16.169,-15.283 8.128,-5.611 0,0" />
          </g>
          <g
             transform="translate(297.5376,622.1181)"
             id="g837">
            <path
               inkscape:connector-curvature="0"
               id="path839"
               style="fill:#2470ae;fill-opacity:1;fill-rule:nonzero;stroke:none"
               d="m 0,0 c -4.565,-8.675 -11.354,-18.625 -12.013,-18.967 0.12,-0.033 0.24,-0.072 0.359,-0.102 11.233,-2.979 18.739,-1.357 25.042,0.208 10.783,2.677 16.406,6.996 16.406,6.996 z" />
          </g>
          <g
             transform="translate(303.7734,683.3705)"
             id="g841">
            <path
               inkscape:connector-curvature="0"
               id="path843"
               style="fill:#d73175;fill-opacity:1;fill-rule:nonzero;stroke:none"
               d="m 0,0 c 0,0 -14.739,-13.935 -31.572,-21.439 -3.835,-1.709 -7.16,-2.817 -10.139,-3.48 -3.683,-0.822 -6.832,-0.966 -9.745,-0.724 -6.724,0.562 -11.928,4.283 -11.928,4.283 0,0 0.002,-0.008 0.005,-0.012 0.114,-0.243 3.949,-8.436 5.682,-12.736 0.067,-0.168 0.131,-0.338 0.197,-0.505 1.75,-4.634 4.448,-15.268 14.026,-27.2 0.024,-0.03 0.047,-0.057 0.07,-0.086 0.209,-0.261 0.422,-0.517 0.635,-0.774 5.42,-6.591 11.713,-11.73 17.863,-14.892 2.242,-1.151 4.462,-2.036 6.615,-2.64 l 0.039,-0.016 c 10e-4,0 0.002,0.002 0.003,0.003 0.659,0.343 7.448,10.292 12.012,18.966 0.71,1.347 1.365,2.662 1.934,3.908 4.371,9.533 8.268,17.327 9.33,33.942 C 6.074,-7.025 0,0 0,0" />
          </g>
          <g
             transform="translate(192.1616,574.4218)"
             id="g845">
            <path
               inkscape:connector-curvature="0"
               id="path847"
               style="fill:#d73175;fill-opacity:1;fill-rule:nonzero;stroke:none"
               d="m 0,0 v 10.42 c 0,0.576 0.341,1.094 0.887,1.301 0.547,0.206 1.168,0.044 1.537,-0.385 l 3.888,-4.434 4.079,4.405 c 0.385,0.414 0.991,0.561 1.523,0.34 0.546,-0.207 0.887,-0.725 0.887,-1.286 V 0.029 h -2.779 v 6.77 L 7.302,3.872 C 7.036,3.576 6.666,3.429 6.283,3.429 H 6.268 c -0.4,0 -0.769,0.177 -1.035,0.473 L 2.78,6.696 V 0 Z" />
          </g>
          <g
             transform="translate(231.9126,586.2314)"
             id="g849">
            <path
               inkscape:connector-curvature="0"
               id="path851"
               style="fill:#414142;fill-opacity:1;fill-rule:nonzero;stroke:none"
               d="m 0,0 v -10.419 c 0,-0.577 -0.34,-1.095 -0.887,-1.302 -0.547,-0.207 -1.168,-0.044 -1.537,0.385 l -3.888,4.434 -4.079,-4.406 c -0.384,-0.413 -0.99,-0.56 -1.522,-0.338 -0.547,0.206 -0.887,0.723 -0.887,1.286 v 10.33 h 2.779 v -6.768 l 2.719,2.926 c 0.266,0.295 0.636,0.443 1.02,0.443 h 0.015 c 0.399,0 0.768,-0.177 1.035,-0.473 l 2.453,-2.793 V 0 Z" />
          </g>
          <g
             transform="translate(217.3047,583.8661)"
             id="g853">
            <path
               inkscape:connector-curvature="0"
               id="path855"
               style="fill:#414142;fill-opacity:1;fill-rule:nonzero;stroke:none"
               d="M 0,0 -3.503,-3.487 -4.05,-4.035 v -5.409 h -2.808 v 5.409 L -7.42,-3.487 -10.908,0 c -0.532,0.547 -0.532,1.418 0,1.966 0.546,0.532 1.419,0.532 1.95,0 l 3.503,-3.504 3.489,3.504 C -1.419,2.498 -0.547,2.498 0,1.966 0.532,1.418 0.532,0.547 0,0" />
          </g>
          <g
             transform="translate(256.5186,583.8661)"
             id="g857">
            <path
               inkscape:connector-curvature="0"
               id="path859"
               style="fill:#414142;fill-opacity:1;fill-rule:nonzero;stroke:none"
               d="M 0,0 -3.503,-3.487 -4.05,-4.035 v -5.409 h -2.808 v 5.409 L -7.42,-3.487 -10.908,0 c -0.532,0.547 -0.532,1.418 0,1.966 0.547,0.532 1.419,0.532 1.951,0 l 3.503,-3.504 3.488,3.504 C -1.419,2.498 -0.547,2.498 0,1.966 0.532,1.418 0.532,0.547 0,0" />
          </g>
          <g
             transform="translate(280.6616,580.289)"
             id="g861">
            <path
               inkscape:connector-curvature="0"
               id="path863"
               style="fill:#2470ae;fill-opacity:1;fill-rule:nonzero;stroke:none"
               d="m 0,0 v -5.897 h -2.838 v 1.818 H -6.4 c -0.044,0 -0.087,-0.016 -0.132,-0.016 -0.783,0 -1.419,0.651 -1.419,1.435 0,0.753 0.59,1.375 1.33,1.419 h 3.783 V 0 c 0,1.685 -1.374,3.06 -3.059,3.06 -1.685,0 -3.06,-1.375 -3.06,-3.06 v -3.06 -2.823 h -2.852 V 0 c 0,3.267 2.646,5.913 5.912,5.913 C -2.645,5.913 0,3.267 0,0" />
          </g>
          <g
             transform="translate(245.1953,580.289)"
             id="g865">
            <path
               inkscape:connector-curvature="0"
               id="path867"
               style="fill:#414142;fill-opacity:1;fill-rule:nonzero;stroke:none"
               d="m 0,0 v -5.897 h -2.837 v 1.818 h -3.562 c -0.045,0 -0.089,-0.016 -0.134,-0.016 -0.783,0 -1.419,0.651 -1.419,1.435 0,0.753 0.592,1.375 1.33,1.419 h 3.785 V 0 c 0,1.685 -1.375,3.06 -3.06,3.06 -1.685,0 -3.059,-1.375 -3.059,-3.06 v -3.06 -2.823 h -2.853 V 0 c 0,3.267 2.645,5.913 5.912,5.913 C -2.645,5.913 0,3.267 0,0" />
          </g>
          <g
             transform="translate(285.0825,584.9448)"
             id="g869">
            <path
               inkscape:connector-curvature="0"
               id="path871"
               style="fill:#414142;fill-opacity:1;fill-rule:nonzero;stroke:none"
               d="M 0,0 V -10.523 H -2.853 V 0 c 0.073,0.725 0.68,1.301 1.419,1.301 0.74,0 1.36,-0.576 1.418,-1.301 z" />
          </g>
          <g
             transform="translate(297.9409,574.4658)"
             id="g873">
            <path
               inkscape:connector-curvature="0"
               id="path875"
               style="fill:#414142;fill-opacity:1;fill-rule:nonzero;stroke:none"
               d="m 0,0 c -0.28,-0.252 -0.635,-0.385 -0.989,-0.385 -0.355,0 -0.71,0.133 -0.991,0.385 l -4.893,4.907 c -0.398,0.4 -0.531,1.006 -0.31,1.523 0.222,0.517 0.724,0.857 1.286,0.857 h 2.528 c 0.473,0 0.857,0.384 0.857,0.842 0,0.474 -0.384,0.858 -0.857,0.858 H -8.38 v -9.002 h -2.838 V 11.78 h 1.743 1.095 5.085 C -1.33,11.736 0.281,10.125 0.281,8.129 0.281,6.385 -0.96,4.937 -2.602,4.582 L 0,1.981 C 0.547,1.434 0.547,0.547 0,0" />
          </g>
          <g
             transform="translate(302.6855,574.4218)"
             id="g877">
            <path
               inkscape:connector-curvature="0"
               id="path879"
               style="fill:#414142;fill-opacity:1;fill-rule:nonzero;stroke:none"
               d="m 0,0 h -2.838 v 10.523 h 0.016 c 0.058,0.725 0.679,1.301 1.42,1.301 0.738,0 1.345,-0.576 1.418,-1.301 z" />
          </g>
          <g
             transform="translate(309.6484,574.4218)"
             id="g881">
            <path
               inkscape:connector-curvature="0"
               id="path883"
               style="fill:#414142;fill-opacity:1;fill-rule:nonzero;stroke:none"
               d="M 0,0 H -6.977 V 2.837 L 0,2.823 Z" />
          </g>
          <g
             transform="translate(313.1523,584.9448)"
             id="g885">
            <path
               inkscape:connector-curvature="0"
               id="path887"
               style="fill:#414142;fill-opacity:1;fill-rule:nonzero;stroke:none"
               d="M 0,0 V -10.523 H -2.854 V 0 c 0.075,0.725 0.68,1.301 1.42,1.301 0.739,0 1.358,-0.576 1.418,-1.301 z" />
          </g>
          <g
             transform="translate(314.8066,574.4218)"
             id="g889">
            <path
               inkscape:connector-curvature="0"
               id="path891"
               style="fill:#414142;fill-opacity:1;fill-rule:nonzero;stroke:none"
               d="m 0,0 v 10.391 c 0,0.546 0.326,1.049 0.828,1.271 0.502,0.236 1.109,0.147 1.508,-0.237 L 9.535,4.493 v 7.302 h 2.793 V 1.359 C 12.328,0.813 12.002,0.31 11.5,0.088 10.998,-0.118 10.393,-0.044 9.992,0.324 L 2.795,7.257 V 0 Z" />
          </g>
          <g
             transform="translate(353.0312,578.1308)"
             id="g893">
            <path
               inkscape:connector-curvature="0"
               id="path895"
               style="fill:#414142;fill-opacity:1;fill-rule:nonzero;stroke:none"
               d="m 0,0 c 0,-2.039 -1.641,-3.68 -3.68,-3.68 h -7.08 v 2.764 h 7.08 c 0.502,0 0.916,0.415 0.916,0.916 0,0.488 -0.414,0.902 -0.916,0.902 h -0.015 l -1.551,0.015 h -2.498 c -1.983,0 -3.594,1.625 -3.594,3.606 0,1.951 1.524,3.533 3.445,3.622 h 0.088 5.395 c 0.756,0 1.375,-0.621 1.375,-1.39 0,-0.769 -0.619,-1.389 -1.375,-1.389 h -5.334 c -0.459,0 -0.828,-0.369 -0.828,-0.843 0,-0.458 0.369,-0.827 0.828,-0.827 h 2.527 l 1.551,-0.03 C -1.641,3.651 0,2.025 0,0" />
          </g>
          <g
             transform="translate(337.8516,583.3437)"
             id="g897">
            <path
               inkscape:connector-curvature="0"
               id="path899"
               style="fill:#414142;fill-opacity:1;fill-rule:nonzero;stroke:none"
               d="M 0,0 -1.006,0.015 V 0 h -2.363 c -1.701,0 -3.063,-1.36 -3.063,-3.059 0,-1.686 1.362,-3.06 3.063,-3.06 h 5.025 v -2.823 h -5.025 c -3.268,0 -5.914,2.63 -5.914,5.883 0,3.267 2.646,5.912 5.914,5.912 h 0.162 c 0.059,0.015 0.117,0.015 0.178,0.015 h 3.74 C 1.656,2.557 2.201,0.716 0.711,0" />
          </g>
          <g
             transform="translate(338.5625,580.3134)"
             id="g901">
            <path
               inkscape:connector-curvature="0"
               id="path903"
               style="fill:#414142;fill-opacity:1;fill-rule:nonzero;stroke:none"
               d="M 0,0 C 0,0.566 -0.404,1.038 -0.937,1.162 V 1.188 H -1.092 -4.775 -4.928 V 1.152 c -0.533,-0.116 -0.937,-0.599 -0.937,-1.165 0,-0.567 0.404,-1.038 0.937,-1.163 v -0.026 h 0.153 3.683 0.155 v 0.036 C -0.404,-1.049 0,-0.567 0,0" />
          </g>
          <g
             transform="translate(185.584,417.5976)"
             id="g905">
            <path
               inkscape:connector-curvature="0"
               id="path907"
               style="fill:#2470ae;fill-opacity:1;fill-rule:nonzero;stroke:none"
               d="m 0,0 c -4.41,3.045 -6.863,4.286 -10.706,4.787 -2.909,0.381 -5.216,-0.426 -5.216,-0.426 0,0 5.789,-2.433 10.557,-9.032 1.55,-2.142 2.796,-4.181 3.856,-6.168 l -0.007,0.01 c 0,0 3.508,-2.509 8.045,-2.888 1.961,-0.162 4.087,-0.068 6.569,0.488 -0.036,0.045 -0.069,0.088 -0.098,0.128 C 10.903,-10.306 5.48,-3.783 0,0" />
          </g>
          <g
             transform="translate(222.5977,379.874)"
             id="g909">
            <path
               inkscape:connector-curvature="0"
               id="path911"
               style="fill:#2470ae;fill-opacity:1;fill-rule:nonzero;stroke:none"
               d="m 0,0 c -3.079,-5.85 -7.657,-12.56 -8.099,-12.787 0.08,-0.026 0.162,-0.051 0.241,-0.072 7.575,-2.007 12.637,-0.912 16.887,0.14 C 16.299,-10.912 20.09,-8 20.09,-8 Z" />
          </g>
          <g
             transform="translate(226.8018,421.1728)"
             id="g913">
            <path
               inkscape:connector-curvature="0"
               id="path915"
               style="fill:#d73175;fill-opacity:1;fill-rule:nonzero;stroke:none"
               d="m 0,0 c 0,0 -9.938,-9.396 -21.287,-14.454 -2.585,-1.153 -4.826,-1.9 -6.835,-2.349 -2.484,-0.553 -4.607,-0.647 -6.569,-0.485 -4.538,0.377 -8.045,2.888 -8.045,2.888 0,0 0,-0.007 0.002,-0.008 0.077,-0.167 2.663,-5.69 3.832,-8.59 0.045,-0.112 0.09,-0.227 0.133,-0.34 1.181,-3.123 2.999,-10.295 9.457,-18.339 0.018,-0.02 0.032,-0.04 0.048,-0.059 0.141,-0.175 0.285,-0.346 0.426,-0.522 3.658,-4.442 7.899,-7.906 12.047,-10.041 1.51,-0.776 3.007,-1.372 4.458,-1.778 l 0.029,-0.013 10e-4,0.004 c 0.442,0.228 5.02,6.938 8.099,12.787 0.478,0.907 0.92,1.794 1.305,2.635 2.946,6.428 5.573,11.683 6.291,22.889 C 4.098,-4.735 0,0 0,0" />
          </g>
          <g
             transform="translate(253.853,366.6181)"
             id="g917">
            <path
               inkscape:connector-curvature="0"
               id="path919"
               style="fill:#d73175;fill-opacity:1;fill-rule:nonzero;stroke:none"
               d="m 0,0 v 13.979 c 0,0.773 0.458,1.468 1.191,1.747 0.734,0.275 1.566,0.056 2.061,-0.519 l 5.216,-5.948 5.472,5.91 c 0.517,0.557 1.33,0.753 2.042,0.456 0.734,-0.277 1.19,-0.973 1.19,-1.725 V 0.04 H 13.445 V 9.122 L 9.796,5.193 C 9.439,4.799 8.943,4.6 8.429,4.6 H 8.409 C 7.873,4.6 7.377,4.837 7.021,5.234 L 3.729,8.984 V 0 Z" />
          </g>
          <g
             transform="translate(307.1807,382.4619)"
             id="g921">
            <path
               inkscape:connector-curvature="0"
               id="path923"
               style="fill:#414142;fill-opacity:1;fill-rule:nonzero;stroke:none"
               d="m 0,0 v -13.979 c 0,-0.773 -0.457,-1.468 -1.189,-1.746 -0.735,-0.276 -1.569,-0.058 -2.064,0.516 l -5.214,5.949 -5.473,-5.909 c -0.515,-0.556 -1.329,-0.754 -2.042,-0.457 -0.734,0.278 -1.19,0.973 -1.19,1.728 v 13.857 h 3.728 v -9.08 l 3.649,3.927 c 0.357,0.396 0.851,0.594 1.368,0.594 h 0.018 c 0.536,0 1.032,-0.238 1.388,-0.634 l 3.292,-3.747 V 0 Z" />
          </g>
          <g
             transform="translate(287.5835,379.288)"
             id="g925">
            <path
               inkscape:connector-curvature="0"
               id="path927"
               style="fill:#414142;fill-opacity:1;fill-rule:nonzero;stroke:none"
               d="M 0,0 -4.7,-4.678 -5.433,-5.413 V -12.67 H -9.2 v 7.257 L -9.955,-4.678 -14.633,0 c -0.716,0.734 -0.716,1.902 0,2.639 0.732,0.714 1.904,0.714 2.616,0 l 4.7,-4.702 4.679,4.702 C -1.904,3.353 -0.734,3.353 0,2.639 0.714,1.902 0.714,0.734 0,0" />
          </g>
          <g
             transform="translate(340.1895,379.288)"
             id="g929">
            <path
               inkscape:connector-curvature="0"
               id="path931"
               style="fill:#414142;fill-opacity:1;fill-rule:nonzero;stroke:none"
               d="M 0,0 -4.7,-4.678 -5.432,-5.413 V -12.67 H -9.2 v 7.257 L -9.954,-4.678 -14.632,0 c -0.716,0.734 -0.716,1.902 0,2.639 0.732,0.714 1.903,0.714 2.615,0 l 4.701,-4.702 4.678,4.702 C -1.903,3.353 -0.734,3.353 0,2.639 0.714,1.902 0.714,0.734 0,0" />
          </g>
          <g
             transform="translate(372.5801,374.4902)"
             id="g933">
            <path
               inkscape:connector-curvature="0"
               id="path935"
               style="fill:#2470ae;fill-opacity:1;fill-rule:nonzero;stroke:none"
               d="m 0,0 v -7.913 h -3.809 v 2.44 h -4.778 c -0.059,0 -0.118,-0.021 -0.179,-0.021 -1.048,0 -1.902,0.874 -1.902,1.925 0,1.01 0.791,1.844 1.784,1.902 h 5.075 V 0 c 0,2.259 -1.843,4.103 -4.103,4.103 -2.262,0 -4.105,-1.844 -4.105,-4.103 v -4.105 -3.787 h -3.826 V 0 c 0,4.383 3.547,7.931 7.931,7.931 C -3.549,7.931 0,4.383 0,0" />
          </g>
          <g
             transform="translate(325,374.4902)"
             id="g937">
            <path
               inkscape:connector-curvature="0"
               id="path939"
               style="fill:#414142;fill-opacity:1;fill-rule:nonzero;stroke:none"
               d="m 0,0 v -7.913 h -3.807 v 2.44 h -4.778 c -0.06,0 -0.12,-0.021 -0.18,-0.021 -1.05,0 -1.904,0.874 -1.904,1.925 0,1.01 0.795,1.844 1.785,1.902 h 5.077 V 0 c 0,2.259 -1.845,4.103 -4.105,4.103 -2.259,0 -4.103,-1.844 -4.103,-4.103 v -4.105 -3.787 h -3.828 V 0 c 0,4.383 3.55,7.931 7.931,7.931 C -3.549,7.931 0,4.383 0,0" />
          </g>
          <g
             transform="translate(378.5088,380.7363)"
             id="g941">
            <path
               inkscape:connector-curvature="0"
               id="path943"
               style="fill:#414142;fill-opacity:1;fill-rule:nonzero;stroke:none"
               d="M 0,0 V -14.118 H -3.826 V 0 c 0.098,0.973 0.911,1.744 1.902,1.744 0.992,0 1.824,-0.771 1.903,-1.744 z" />
          </g>
          <g
             transform="translate(395.7598,366.6777)"
             id="g945">
            <path
               inkscape:connector-curvature="0"
               id="path947"
               style="fill:#414142;fill-opacity:1;fill-rule:nonzero;stroke:none"
               d="m 0,0 c -0.376,-0.338 -0.853,-0.517 -1.328,-0.517 -0.476,0 -0.953,0.179 -1.328,0.517 l -6.565,6.582 c -0.534,0.536 -0.715,1.351 -0.415,2.042 0.298,0.694 0.97,1.152 1.723,1.152 h 3.391 c 0.636,0 1.152,0.515 1.152,1.13 0,0.634 -0.516,1.151 -1.152,1.151 h -6.722 V -0.02 h -3.807 v 15.823 h 2.341 1.466 6.823 c 2.636,-0.06 4.797,-2.218 4.797,-4.897 0,-2.339 -1.665,-4.285 -3.866,-4.76 L 0,2.659 C 0.734,1.923 0.734,0.733 0,0" />
          </g>
          <g
             transform="translate(402.125,366.6181)"
             id="g949">
            <path
               inkscape:connector-curvature="0"
               id="path951"
               style="fill:#414142;fill-opacity:1;fill-rule:nonzero;stroke:none"
               d="m 0,0 h -3.808 v 14.118 h 0.021 c 0.08,0.973 0.912,1.744 1.902,1.744 0.992,0 1.807,-0.771 1.906,-1.744 z" />
          </g>
          <g
             transform="translate(411.4639,366.6181)"
             id="g953">
            <path
               inkscape:connector-curvature="0"
               id="path955"
               style="fill:#414142;fill-opacity:1;fill-rule:nonzero;stroke:none"
               d="M 0,0 H -9.357 V 3.808 L 0,3.787 Z" />
          </g>
          <g
             transform="translate(416.1631,380.7363)"
             id="g957">
            <path
               inkscape:connector-curvature="0"
               id="path959"
               style="fill:#414142;fill-opacity:1;fill-rule:nonzero;stroke:none"
               d="M 0,0 V -14.118 H -3.825 V 0 c 0.098,0.973 0.913,1.744 1.903,1.744 0.992,0 1.822,-0.771 1.903,-1.744 z" />
          </g>
          <g
             transform="translate(418.3857,366.6181)"
             id="g961">
            <path
               inkscape:connector-curvature="0"
               id="path963"
               style="fill:#414142;fill-opacity:1;fill-rule:nonzero;stroke:none"
               d="m 0,0 v 13.941 c 0,0.733 0.437,1.407 1.108,1.703 0.676,0.319 1.488,0.2 2.024,-0.316 l 9.658,-9.3 v 9.795 h 3.746 V 1.824 c 0,-0.734 -0.435,-1.408 -1.11,-1.705 -0.673,-0.277 -1.485,-0.179 -2.023,0.317 L 3.748,9.734 V 0 Z" />
          </g>
          <g
             transform="translate(469.6621,371.5947)"
             id="g965">
            <path
               inkscape:connector-curvature="0"
               id="path967"
               style="fill:#414142;fill-opacity:1;fill-rule:nonzero;stroke:none"
               d="m 0,0 c 0,-2.736 -2.197,-4.937 -4.935,-4.937 h -9.498 v 3.708 h 9.498 c 0.673,0 1.228,0.555 1.228,1.229 0,0.654 -0.555,1.21 -1.228,1.21 h -0.022 l -2.078,0.019 h -3.354 c -2.658,0 -4.818,2.181 -4.818,4.84 0,2.618 2.043,4.737 4.622,4.858 h 0.117 7.236 c 1.015,0 1.845,-0.835 1.845,-1.866 0,-1.031 -0.83,-1.862 -1.845,-1.862 h -7.157 c -0.615,0 -1.111,-0.496 -1.111,-1.13 0,-0.615 0.496,-1.111 1.111,-1.111 h 3.392 L -4.916,4.917 C -2.197,4.898 0,2.717 0,0" />
          </g>
          <g
             transform="translate(449.2979,378.5869)"
             id="g969">
            <path
               inkscape:connector-curvature="0"
               id="path971"
               style="fill:#414142;fill-opacity:1;fill-rule:nonzero;stroke:none"
               d="M 0,0 -1.349,0.021 V 0 h -3.17 c -2.281,0 -4.105,-1.825 -4.105,-4.104 0,-2.26 1.824,-4.102 4.105,-4.102 h 6.742 v -3.79 h -6.742 c -4.383,0 -7.93,3.53 -7.93,7.892 0,4.382 3.547,7.932 7.93,7.932 h 0.217 c 0.079,0.021 0.158,0.021 0.24,0.021 H 0.955 C 2.223,3.431 2.954,0.96 0.955,0" />
          </g>
          <g
             transform="translate(450.2529,374.5234)"
             id="g973">
            <path
               inkscape:connector-curvature="0"
               id="path975"
               style="fill:#414142;fill-opacity:1;fill-rule:nonzero;stroke:none"
               d="m 0,0 c 0,0.759 -0.542,1.392 -1.257,1.557 v 0.036 h -0.207 -4.94 -0.205 V 1.545 c -0.716,-0.157 -1.259,-0.804 -1.259,-1.563 0,-0.759 0.543,-1.394 1.259,-1.559 v -0.036 h 0.205 4.94 0.207 v 0.048 C -0.542,-1.408 0,-0.762 0,0" />
          </g>
        </g>
      </g>
    </g>
  </g>
</svg>
