<?xml version="1.0" encoding="UTF-8" standalone="no"?>
<svg
   xmlns:dc="http://purl.org/dc/elements/1.1/"
   xmlns:cc="http://creativecommons.org/ns#"
   xmlns:rdf="http://www.w3.org/1999/02/22-rdf-syntax-ns#"
   xmlns:svg="http://www.w3.org/2000/svg"
   xmlns="http://www.w3.org/2000/svg"
   xmlns:sodipodi="http://sodipodi.sourceforge.net/DTD/sodipodi-0.dtd"
   xmlns:inkscape="http://www.inkscape.org/namespaces/inkscape"
   viewBox="0 0 17 17.549999"
   version="1.1"
   id="svg1083"
   sodipodi:docname="icon_luggage_gray.svg"
   width="17"
   height="17.549999"
   inkscape:version="0.92.3 (unknown)">
  <metadata
     id="metadata1087">
    <rdf:RDF>
      <cc:Work
         rdf:about="">
        <dc:format>image/svg+xml</dc:format>
        <dc:type
           rdf:resource="http://purl.org/dc/dcmitype/StillImage" />
        <dc:title></dc:title>
      </cc:Work>
    </rdf:RDF>
  </metadata>
  <sodipodi:namedview
     pagecolor="#ffffff"
     bordercolor="#666666"
     borderopacity="1"
     objecttolerance="10"
     gridtolerance="10"
     guidetolerance="10"
     inkscape:pageopacity="0"
     inkscape:pageshadow="2"
     inkscape:window-width="1920"
     inkscape:window-height="1025"
     id="namedview1085"
     showgrid="false"
     inkscape:pagecheckerboard="true"
     fit-margin-top="0"
     fit-margin-left="0"
     fit-margin-right="0"
     fit-margin-bottom="0"
     inkscape:zoom="32.5"
     inkscape:cx="8.5"
     inkscape:cy="8.55"
     inkscape:window-x="0"
     inkscape:window-y="27"
     inkscape:window-maximized="1"
     inkscape:current-layer="svg1083" />
  <defs
     id="defs1071" />
  <path
     class="cls-1"
     style="fill:#9b9b9b"
     d="m 0,7.05 v 8.38 A 1.57,1.57 0 0 0 1.57,17 h 0.62 v 0.55 h 2.2 V 17 H 4.94 V 5.48 H 1.57 A 1.57,1.57 0 0 0 0,7.05 Z"
     id="path1073"
     inkscape:connector-curvature="0" />
  <path
     class="cls-1"
     style="fill:#9b9b9b"
     d="M 15.43,5.48 H 12.06 V 17 h 0.55 v 0.55 h 2.2 V 17 h 0.62 A 1.57,1.57 0 0 0 17,15.43 V 7.05 A 1.57,1.57 0 0 0 15.43,5.48 Z"
     id="path1075"
     inkscape:connector-curvature="0" />
  <rect
     class="cls-1"
     style="fill:#9b9b9b"
     x="6.0299997"
     y="5.4799995"
     width="4.9400001"
     height="11.52"
     id="rect1077" />
  <path
     class="cls-1"
     style="fill:#9b9b9b"
     d="M 9.97,0 H 7.03 A 1.55,1.55 0 0 0 5.5,1.55 V 3.39 A 1.56,1.56 0 0 0 7.05,4.94 H 9.99 A 1.56,1.56 0 0 0 11.5,3.39 V 1.55 A 1.55,1.55 0 0 0 9.97,0 Z m 0.45,3.39 A 0.45,0.45 0 0 1 9.97,3.84 H 9.87 V 2.74 H 7.13 v 1.1 H 7.03 A 0.45,0.45 0 0 1 6.58,3.39 V 1.55 A 0.45,0.45 0 0 1 7.03,1.1 h 2.94 a 0.45,0.45 0 0 1 0.45,0.45 z"
     id="path1079"
     inkscape:connector-curvature="0" />
</svg>
