<svg xmlns="http://www.w3.org/2000/svg" style="enable-background:new 0 0 24 24; fill: #fff" viewBox="0 0 31.22 24"><path d="M11.72,10.05v8.38A1.57,1.57,0,0,0,13.29,20h.63v.55h2.19V20h.55V8.48H13.29A1.58,1.58,0,0,0,11.72,10.05Z"/><path d="M27.15,8.48H23.79V20h.55v.55h2.19V20h.62a1.57,1.57,0,0,0,1.57-1.57V10.05A1.57,1.57,0,0,0,27.15,8.48Z"/><rect x="17.75" y="8.48" width="4.94" height="11.52"/><path d="M21.69,3H18.76a1.54,1.54,0,0,0-1.55,1.55V6.39a1.55,1.55,0,0,0,1.55,1.55h2.93a1.56,1.56,0,0,0,1.55-1.55V4.55A1.55,1.55,0,0,0,21.69,3Zm.45,3.39a.45.45,0,0,1-.45.45h-.1V5.74H18.85v1.1h-.09a.46.46,0,0,1-.46-.45V4.55a.46.46,0,0,1,.46-.45h2.93a.45.45,0,0,1,.45.45V6.39Z"/><path d="M9.17,19.27h-7V17.92L5.49,14.5a8.09,8.09,0,0,0,1-1.26,2,2,0,0,0,.33-1,1.49,1.49,0,0,0-.35-1,1.24,1.24,0,0,0-1-.38,1.33,1.33,0,0,0-1.08.46A1.82,1.82,0,0,0,4,12.47H2a3.27,3.27,0,0,1,.44-1.66A3.17,3.17,0,0,1,3.7,9.64a3.92,3.92,0,0,1,1.83-.43A3.67,3.67,0,0,1,8,10,2.57,2.57,0,0,1,8.84,12a3.29,3.29,0,0,1-.39,1.5,8.47,8.47,0,0,1-1.34,1.78L4.8,17.68H9.17Z"/></svg>