<svg xmlns="http://www.w3.org/2000/svg" viewBox="0 0 24 24" style="enable-background:new 0 0 24 24; fill: #fff"><path d="M3.62,10.05v8.38A1.57,1.57,0,0,0,5.19,20h.62v.55H8V20h.55V8.48H5.19A1.57,1.57,0,0,0,3.62,10.05Z"/><path d="M19.05,8.48H15.68V20h.55v.55h2.19V20h.63a1.57,1.57,0,0,0,1.57-1.57V10.05A1.58,1.58,0,0,0,19.05,8.48Z"/><rect x="9.65" y="8.48" width="4.94" height="11.52"/><path d="M13.58,3H10.65A1.54,1.54,0,0,0,9.1,4.55V6.39a1.55,1.55,0,0,0,1.55,1.55h2.93a1.55,1.55,0,0,0,1.55-1.55V4.55A1.54,1.54,0,0,0,13.58,3ZM14,6.39a.45.45,0,0,1-.45.45h-.09V5.74H10.74v1.1h-.09a.45.45,0,0,1-.45-.45V4.55a.45.45,0,0,1,.45-.45h2.93a.45.45,0,0,1,.45.45V6.39Z"/></svg>