<?xml version="1.0" encoding="UTF-8" standalone="no"?>
<svg
   xmlns:dc="http://purl.org/dc/elements/1.1/"
   xmlns:cc="http://creativecommons.org/ns#"
   xmlns:rdf="http://www.w3.org/1999/02/22-rdf-syntax-ns#"
   xmlns:svg="http://www.w3.org/2000/svg"
   xmlns="http://www.w3.org/2000/svg"
   xmlns:sodipodi="http://sodipodi.sourceforge.net/DTD/sodipodi-0.dtd"
   xmlns:inkscape="http://www.inkscape.org/namespaces/inkscape"
   viewBox="0 0 24 24"
   style="enable-background:new 0 0 24 24; fill: #fff"
   version="1.1"
   id="svg1098"
   sodipodi:docname="icon_ticket-change_no.svg"
   inkscape:version="0.92.3 (unknown)">
  <metadata
     id="metadata1104">
    <rdf:RDF>
      <cc:Work
         rdf:about="">
        <dc:format>image/svg+xml</dc:format>
        <dc:type
           rdf:resource="http://purl.org/dc/dcmitype/StillImage" />
        <dc:title></dc:title>
      </cc:Work>
    </rdf:RDF>
  </metadata>
  <defs
     id="defs1102" />
  <sodipodi:namedview
     pagecolor="#ffffff"
     bordercolor="#666666"
     borderopacity="1"
     objecttolerance="10"
     gridtolerance="10"
     guidetolerance="10"
     inkscape:pageopacity="0"
     inkscape:pageshadow="2"
     inkscape:window-width="1920"
     inkscape:window-height="1025"
     id="namedview1100"
     showgrid="false"
     inkscape:zoom="27.812867"
     inkscape:cx="12.686901"
     inkscape:cy="12.791151"
     inkscape:window-x="0"
     inkscape:window-y="27"
     inkscape:window-maximized="1"
     inkscape:current-layer="svg1098" />
  <path
     d="M12,4V1L8,5l4,4V6a6,6,0,0,1,6,6,5.87,5.87,0,0,1-.7,2.8l1.46,1.46A8,8,0,0,0,12,4Zm0,14a6,6,0,0,1-6-6,5.87,5.87,0,0,1,.7-2.8L5.24,7.74A8,8,0,0,0,12,20v3l4-4-4-4Z"
     id="path1096"
     style="fill:#9b9b9b;fill-opacity:1" />
  <rect
     class="cls-2"
     style="fill:#db4949"
     x="-4.6429567"
     y="14.809551"
     width="21.98"
     height="1.59"
     transform="rotate(-23.86)"
     id="rect1777" />
</svg>
