<?xml version="1.0" encoding="UTF-8" standalone="no"?>
<svg
   xmlns:dc="http://purl.org/dc/elements/1.1/"
   xmlns:cc="http://creativecommons.org/ns#"
   xmlns:rdf="http://www.w3.org/1999/02/22-rdf-syntax-ns#"
   xmlns:svg="http://www.w3.org/2000/svg"
   xmlns="http://www.w3.org/2000/svg"
   xmlns:sodipodi="http://sodipodi.sourceforge.net/DTD/sodipodi-0.dtd"
   xmlns:inkscape="http://www.inkscape.org/namespaces/inkscape"
   viewBox="0 0 15.597105 19.580887"
   version="1.1"
   id="svg1128"
   sodipodi:docname="icon_seat_gray.svg"
   width="15.597105"
   height="19.580887"
   inkscape:version="0.92.3 (unknown)">
  <metadata
     id="metadata1132">
    <rdf:RDF>
      <cc:Work
         rdf:about="">
        <dc:format>image/svg+xml</dc:format>
        <dc:type
           rdf:resource="http://purl.org/dc/dcmitype/StillImage" />
        <dc:title></dc:title>
      </cc:Work>
    </rdf:RDF>
  </metadata>
  <sodipodi:namedview
     pagecolor="#ffffff"
     bordercolor="#666666"
     borderopacity="1"
     objecttolerance="10"
     gridtolerance="10"
     guidetolerance="10"
     inkscape:pageopacity="0"
     inkscape:pageshadow="2"
     inkscape:window-width="1920"
     inkscape:window-height="1025"
     id="namedview1130"
     showgrid="false"
     fit-margin-top="0"
     fit-margin-left="0"
     fit-margin-right="0"
     fit-margin-bottom="0"
     inkscape:zoom="33.166667"
     inkscape:cx="7.8103359"
     inkscape:cy="9.8102921"
     inkscape:window-x="0"
     inkscape:window-y="27"
     inkscape:window-maximized="1"
     inkscape:current-layer="svg1128" />
  <defs
     id="defs1122" />
  <path
     class="cls-1"
     style="fill:#9b9b9b"
     d="m 14.900336,11.510594 v 0 h -0.21 -5.2400001 l -4,0.35 -0.7,-1.9299999 h 6.2300001 a 0.92,0.92 0 0 0 0.94,-0.94 v 0 a 0.91,0.91 0 0 0 -0.94,-0.93 H 4.0303359 l -1.22,-3.29 v 0 -3.37 A 1.37,1.37 0 0 0 1.4003359,5.9408813e-4 1.37,1.37 0 0 0 3.359051e-4,1.4005941 v 3.51 a 1.68,1.68 0 0 0 0.1000000049,0.51 1.64,1.64 0 0 0 0.07,0.28 L 3.4303359,14.700594 a 1.7,1.7 0 0 0 0.27,0.45 1.28,1.28 0 0 0 1.13,0.54 h 3 v 2.4 h -3.82 a 0.7,0.7 0 0 0 -0.71,0.71 v 0.08 a 0.69,0.69 0 0 0 0.71,0.7 h 9.5400001 a 0.69,0.69 0 0 0 0.7,-0.7 v -0.11 a 0.69,0.69 0 0 0 -0.7,-0.71 H 9.7003359 v -2.4 h 4.3100001 a 0.87,0.87 0 0 0 0.94,-0.69 l 0.61,-2.3 a 0.92,0.92 0 0 0 -0.66,-1.15"
     id="path1124"
     inkscape:connector-curvature="0" />
</svg>
