<svg xmlns="http://www.w3.org/2000/svg" viewBox="0 0 24 24"><defs></defs><path class="cls-1" style="fill:#9b9b9b;" d="M19.09,13.74h0l-.21,0H13.64l-4,.35-.7-1.93h6.23a.92.92,0,0,0,.94-.94h0a.91.91,0,0,0-.94-.93H8.22L7,7H7V3.63a1.37,1.37,0,0,0-1.41-1.4,1.37,1.37,0,0,0-1.4,1.4V7.14a1.68,1.68,0,0,0,.1.51,1.64,1.64,0,0,0,.07.28l3.26,9a1.7,1.7,0,0,0,.27.45,1.28,1.28,0,0,0,1.13.54h3v2.4H8.2a.7.7,0,0,0-.71.71v.08a.69.69,0,0,0,.71.7h9.54a.69.69,0,0,0,.7-.7V21a.69.69,0,0,0-.7-.71H13.89v-2.4H18.2a.87.87,0,0,0,.94-.69l.61-2.3a.92.92,0,0,0-.66-1.15"/><rect class="cls-2" style="fill:#db4949;" x="0.99" y="12.98" width="21.98" height="1.59" transform="translate(-4.55 6.02) rotate(-23.86)"/></svg>