<svg xmlns="http://www.w3.org/2000/svg" style="enable-background:new 0 0 24 24; fill: #fff" viewBox="0 0 26.06 24"><path d="M23.28,7.66A21.06,21.06,0,0,1,20.41,8v.91a.3.3,0,0,1,0,.16v1.33a.47.47,0,0,1-.47.47H18.64a.47.47,0,0,1-.47-.47V9a.53.53,0,0,1,.23-.42c0-.23,0-.44,0-.68-.32,0-.65,0-1,0l-1,0c0,.24,0,.47,0,.68a.45.45,0,0,1,.24.42v1.33a.47.47,0,0,1-.47.47H15a.47.47,0,0,1-.47-.47V9a.44.44,0,0,1,0-.16V8a17.11,17.11,0,0,1-2.87-.29L10.52,18.41a.47.47,0,0,0,.23.5l.89.65a.53.53,0,0,0,.34.11H22.86a.51.51,0,0,0,.34-.11l.89-.65a.55.55,0,0,0,.24-.5Z"/><path d="M15.58,10.19h.08a.48.48,0,0,0,.42-.57c-.16-.94-.37-3.63.49-4.67a1.22,1.22,0,0,1,.84-.42,1.12,1.12,0,0,1,.83.42c.87,1.07.66,3.73.5,4.67a.5.5,0,0,0,.42.57h.08a.5.5,0,0,0,.49-.42,14.44,14.44,0,0,0,.16-2.06A5.41,5.41,0,0,0,19,4.29l-.15-.15a1.82,1.82,0,0,0-1.41-.63A2,2,0,0,0,16,4.14l-.15.15a5.61,5.61,0,0,0-.89,3.42,10.34,10.34,0,0,0,.16,2.06A.49.49,0,0,0,15.58,10.19Z"/><path d="M8.5,18h-7V16.66l3.28-3.42a7.53,7.53,0,0,0,1-1.26,2,2,0,0,0,.33-1,1.53,1.53,0,0,0-.34-1,1.27,1.27,0,0,0-1-.38A1.36,1.36,0,0,0,3.75,10a1.81,1.81,0,0,0-.39,1.21h-2a3.15,3.15,0,0,1,.45-1.65A3,3,0,0,1,3,8.38,3.92,3.92,0,0,1,4.86,8a3.67,3.67,0,0,1,2.44.74,2.57,2.57,0,0,1,.87,2.08,3.29,3.29,0,0,1-.39,1.5,8.47,8.47,0,0,1-1.34,1.78L4.13,16.42H8.5Z"/></svg>