<?xml version="1.0" encoding="UTF-8" standalone="no"?>
<svg
   xmlns:dc="http://purl.org/dc/elements/1.1/"
   xmlns:cc="http://creativecommons.org/ns#"
   xmlns:rdf="http://www.w3.org/1999/02/22-rdf-syntax-ns#"
   xmlns:svg="http://www.w3.org/2000/svg"
   xmlns="http://www.w3.org/2000/svg"
   xmlns:sodipodi="http://sodipodi.sourceforge.net/DTD/sodipodi-0.dtd"
   xmlns:inkscape="http://www.inkscape.org/namespaces/inkscape"
   viewBox="0 0 13.813004 16.161407"
   style="fill:#ffffff"
   version="1.1"
   id="svg2840"
   sodipodi:docname="icon_carryon_gray.svg"
   width="13.813004"
   height="16.161407"
   inkscape:version="0.92.3 (unknown)">
  <metadata
     id="metadata2846">
    <rdf:RDF>
      <cc:Work
         rdf:about="">
        <dc:format>image/svg+xml</dc:format>
        <dc:type
           rdf:resource="http://purl.org/dc/dcmitype/StillImage" />
        <dc:title></dc:title>
      </cc:Work>
    </rdf:RDF>
  </metadata>
  <defs
     id="defs2844" />
  <sodipodi:namedview
     pagecolor="#ffffff"
     bordercolor="#666666"
     borderopacity="1"
     objecttolerance="10"
     gridtolerance="10"
     guidetolerance="10"
     inkscape:pageopacity="0"
     inkscape:pageshadow="2"
     inkscape:window-width="1920"
     inkscape:window-height="1025"
     id="namedview2842"
     showgrid="false"
     inkscape:pagecheckerboard="true"
     fit-margin-top="0"
     fit-margin-left="0"
     fit-margin-right="0"
     fit-margin-bottom="0"
     inkscape:zoom="9.8333333"
     inkscape:cx="6.7054586"
     inkscape:cy="-5.346432"
     inkscape:window-x="0"
     inkscape:window-y="27"
     inkscape:window-maximized="1"
     inkscape:current-layer="svg2840" />
  <path
     d="m 12.768848,4.1508901 a 21.2,21.2 0 0 1 -2.8599996,0.34 v 0.91 a 0.44,0.44 0 0 1 0,0.09 v 1.33 a 0.46,0.46 0 0 1 -0.46,0.47 h -1.33 a 0.47,0.47 0 0 1 -0.47,-0.47 v -1.33 a 0.54,0.54 0 0 1 0.26,-0.4 c 0,-0.23 0,-0.44 0,-0.68 -0.32,0 -0.66,0 -1,0 h -1 a 4.94,4.94 0 0 0 0,0.68 0.44,0.44 0 0 1 0.23,0.42 v 1.33 a 0.46,0.46 0 0 1 -0.46,0.47 h -1.24 a 0.47,0.47 0 0 1 -0.47,-0.47 v -1.35 a 0.3,0.3 0 0 1 0,-0.16 v -0.84 a 17,17 0 0 1 -2.87,-0.29 L 0.00884845,14.90089 a 0.47,0.47 0 0 0 0.23,0.5 l 0.88999995,0.65 a 0.51,0.51 0 0 0 0.34,0.11 H 12.348848 a 0.51,0.51 0 0 0 0.34,-0.11 l 0.89,-0.65 a 0.52,0.52 0 0 0 0.23,-0.5 z"
     id="path2836"
     style="fill:#9b9b9b;fill-opacity:1"
     inkscape:connector-curvature="0" />
  <path
     d="m 5.0688484,6.6808901 h 0.08 a 0.48,0.48 0 0 0 0.42,-0.57 c -0.16,-0.94 -0.37,-3.62 0.49,-4.62 a 1.22,1.22 0 0 1 0.85,-0.47 1.14,1.14 0 0 1 0.83,0.42 c 0.86,1.07 0.66,3.73 0.5,4.67 a 0.5,0.5 0 0 0 0.42,0.57 h 0.07 a 0.51,0.51 0 0 0 0.5,-0.42 14.44,14.44 0 0 0 0.16,-2.06 5.47,5.47 0 0 0 -0.89,-3.42000004 l -0.16,-0.15 a 1.81,1.81 0 0 0 -1.43,-0.63000000242 2,2 0 0 0 -1.46,0.63000000242 l -0.15,0.15 a 5.54,5.54 0 0 0 -0.89,3.42000004 11.89,11.89 0 0 0 0.15,2.06 0.51,0.51 0 0 0 0.51,0.42 z"
     id="path2838"
     style="fill:#9b9b9b;fill-opacity:1"
     inkscape:connector-curvature="0" />
</svg>
