<?xml version="1.0" encoding="UTF-8" standalone="no"?>
<svg
   xmlns:dc="http://purl.org/dc/elements/1.1/"
   xmlns:cc="http://creativecommons.org/ns#"
   xmlns:rdf="http://www.w3.org/1999/02/22-rdf-syntax-ns#"
   xmlns:svg="http://www.w3.org/2000/svg"
   xmlns="http://www.w3.org/2000/svg"
   xmlns:sodipodi="http://sodipodi.sourceforge.net/DTD/sodipodi-0.dtd"
   xmlns:inkscape="http://www.inkscape.org/namespaces/inkscape"
   viewBox="0 0 15.977098 44.393627"
   style="fill:#ffffff"
   version="1.1"
   id="svg1098"
   sodipodi:docname="ticket-refund-after-departure-gray.svg"
   inkscape:version="0.92.3 (unknown)"
   width="15.977098"
   height="44.393627">
  <metadata
     id="metadata1104">
    <rdf:RDF>
      <cc:Work
         rdf:about="">
        <dc:format>image/svg+xml</dc:format>
        <dc:type
           rdf:resource="http://purl.org/dc/dcmitype/StillImage" />
        <dc:title></dc:title>
      </cc:Work>
    </rdf:RDF>
  </metadata>
  <defs
     id="defs1102" />
  <sodipodi:namedview
     pagecolor="#ffffff"
     bordercolor="#666666"
     borderopacity="1"
     objecttolerance="10"
     gridtolerance="10"
     guidetolerance="10"
     inkscape:pageopacity="0"
     inkscape:pageshadow="2"
     inkscape:window-width="1920"
     inkscape:window-height="1025"
     id="namedview1100"
     showgrid="false"
     inkscape:zoom="9.8333334"
     inkscape:cx="-1.2390474"
     inkscape:cy="18.70801"
     inkscape:window-x="0"
     inkscape:window-y="27"
     inkscape:window-maximized="1"
     inkscape:current-layer="svg1098"
     showguides="true"
     inkscape:guide-bbox="true"
     fit-margin-top="0"
     fit-margin-left="0"
     fit-margin-right="0"
     fit-margin-bottom="0">
    <sodipodi:guide
       position="-16.056785,50.383253"
       orientation="1,0"
       id="guide4331"
       inkscape:locked="false" />
    <sodipodi:guide
       position="36.82457,45.400203"
       orientation="1,0"
       id="guide4333"
       inkscape:locked="false" />
  </sodipodi:namedview>
  <path
     d="m 7.9885482,25.393641 v -3 l -3.999987,3.999987 3.999987,3.999988 v -3 a 6.0000001,6.0000001 0 0 1 6.0000008,6 5.8700002,5.8700002 0 0 1 -0.700007,2.800025 l 1.459994,1.459994 A 8.0000002,8.0000002 0 0 0 7.9885482,25.393641 Z m 0,13.999975 a 6.0000001,6.0000001 0 0 1 -6,-6 5.8700002,5.8700002 0 0 1 0.700006,-2.799988 l -1.459993,-1.459994 a 8.0000002,8.0000002 0 0 0 6.759987,12.259994 v 3 L 11.988536,40.393641 7.9885482,36.393616 Z"
     id="path1096-3"
     style="display:inline;fill:#9b9b9b;fill-opacity:1;stroke-width:0.99999994"
     inkscape:connector-curvature="0" />
  <g
     id="g865-5-3"
     transform="matrix(0.19213999,0,0,0.19213999,0.4231432,1.573657e-4)"
     style="display:inline;fill:#9b9b9b;fill-opacity:1">
    <g
       id="airplane-3-6"
       style="fill:#9b9b9b;fill-opacity:1">
      <path
         id="path850-5-7"
         d="M 21.909,68.561 7.376,65.613 11.308,60.1 22.974,60.554 42.415,31.408 0,21.536 l 5.243,-7.35 47.013,2.061 3.387,-4.853 c 2.031,-2.847 4.238,-5.17 6.619,-6.969 l 3.31,-2.435 c 2.471,-1.784 4.138,-2.369 4.999,-1.755 0.927,0.662 0.95,2.451 0.067,5.368 l -1.224,3.923 c -0.925,2.838 -2.438,5.73 -4.54,8.676 L 61.445,22.8 78.749,66.616 73.506,73.967 50.363,37.077 29.134,64.947 33.36,75.83 29.428,81.343 Z"
         inkscape:connector-curvature="0"
         style="fill:#9b9b9b;fill-opacity:1" />
    </g>
    <g
       id="Слой_1-6-5"
       style="fill:#9b9b9b;fill-opacity:1" />
  </g>
</svg>
